<?xml version="1.0" encoding="utf-8"?>
<!-- Generator: Adobe Illustrator 22.1.0, SVG Export Plug-In . SVG Version: 6.00 Build 0)  -->
<svg version="1.1" id="Warstwa_1" xmlns="http://www.w3.org/2000/svg" xmlns:xlink="http://www.w3.org/1999/xlink" x="0px" y="0px"
	 viewBox="0 0 160 39" style="enable-background:new 0 0 160 39;" xml:space="preserve">
<style type="text/css">
	.st0{fill:#021b5f;}
</style>
<g>
	<g>
		<path class="st0" d="M9.7,9.1c-5-1.3-9.7,2.8-9.7,8l0,14.2c0,4.8,2.7,7.7,7.3,7.7c4.6,0,7.3-2.8,7.3-7.1v-0.1h0
			c0-1.3-1.1-2.4-2.4-2.4s-2.4,1.1-2.4,2.4h0v0.5c0,1.8-1.1,2.7-2.5,2.7c-1.1,0-2.6-0.6-2.6-2.7v-5.9c0-0.3,0.2-0.5,0.5-0.5h6.4
			c1.6,0,2.9-1.3,2.9-2.9v-6C14.6,12.7,13,10,9.7,9.1z M9.8,22c0,0.3-0.2,0.5-0.5,0.5H5.3c-0.3,0-0.5-0.2-0.5-0.5v-6.3
			C4.8,13.8,6,13,7.3,13c1.6,0,2.5,0.8,2.5,3.7V22z"/>
		<path class="st0" d="M22,1.8c-1.3,0-2.4,1.1-2.4,2.4v32c0,1.3,1.1,2.4,2.4,2.4c1.3,0,2.4-1.1,2.4-2.4v-32
			C24.5,2.9,23.4,1.8,22,1.8z"/>
		<path class="st0" d="M55,18.4c-0.9-1.2-1.2-2.2-1.2-3c0-1.4,1.1-2.3,2.3-2.3c0.8,0,1.7,0.4,2.1,1.4c0.4,0.9,1.2,1.6,2.2,1.6h0.1
			c1.6,0,2.8-1.6,2.2-3.2c-1-2.7-3.4-4-6.9-4c-4.3,0-6.9,2.9-6.9,6.5c0,1.8,0.2,3.7,2.3,6.3l5.9,7.2c1.4,1.7,1.5,2.4,1.5,3.5
			c0,1.4-1,2.6-2.5,2.6c-1.1,0-2-0.6-2.5-1.6c-0.4-0.9-1.2-1.6-2.2-1.6h-0.1c-1.7,0-2.8,1.7-2.2,3.2c1.1,2.6,3.5,4.1,7,4.1
			c4.8,0,7.3-2.9,7.3-6.6c0-2.2-0.4-4.2-2.5-6.8L55,18.4z"/>
		<path class="st0" d="M89.2,8.9c-4.7,0-7.3,3-7.3,7.7v14.6c0,4.8,2.7,7.8,7.3,7.8c4.6,0,7.3-3,7.3-7.8V16.6
			C96.5,11.9,93.8,8.9,89.2,8.9z M91.7,31.9c0,2-1.2,2.7-2.5,2.7c-1.4,0-2.6-0.7-2.6-2.7V16c0-1.9,1.1-2.7,2.6-2.7
			c1.4,0,2.5,0.8,2.5,2.7V31.9z"/>
		<path class="st0" d="M104,1.8c-1.3,0-2.4,1.1-2.4,2.4v32c0,1.3,1.1,2.4,2.4,2.4s2.4-1.1,2.4-2.4v-32C106.4,2.9,105.3,1.8,104,1.8z
			"/>
		<path class="st0" d="M140.2,8.8c-2.7,0-3.9,1.8-4.1,2.2V4.2c0-1.3-1.1-2.4-2.4-2.4c-1.3,0-2.4,1.1-2.4,2.4v28.4v2.2v1.6
			c0,1.2,1,2.3,2.2,2.3c1.1,0,2-0.8,2.2-1.9c0.1,0.1,0.1,0.1,0.1,0.1c0.3,0.4,1.7,2.2,4.4,2.2c3.5,0,5.7-2,5.7-7V15.9
			C146,10.9,143.7,8.8,140.2,8.8z M141.1,30.9c0,2.7-0.8,3.7-2.5,3.7c-1.6,0-2.5-1-2.5-3.7v-14c0-2.5,0.9-3.6,2.5-3.6
			c1.7,0,2.5,1,2.5,3.7V30.9z"/>
		<path class="st0" d="M123.8,9.2c-1.1,0-2,0.8-2.2,1.9c0,0,0,0,0,0c-0.3-0.4-1.7-2.2-4.4-2.2c-3.4,0-5.7,2-5.7,7v15.9
			c0,5.1,2.3,7.1,5.7,7.1c2.7,0,4.2-1.8,4.4-2.2c0,0,0,0,0,0c0.2,1.1,1.1,1.9,2.2,1.9c1.2,0,2.2-1,2.2-2.3v-2.3v-1.5V15.2v-1.5v-2.3
			C126,10.2,125,9.2,123.8,9.2z M121.3,30.9c0,2.7-0.8,3.6-2.5,3.6c-1.6,0-2.5-0.9-2.5-3.6V17c0-2.7,0.9-3.7,2.5-3.7
			c1.2,0,2.5,0.7,2.5,2.6V30.9z"/>
		<path class="st0" d="M41.9,9.2c-1.1,0-2,0.8-2.2,1.9c0,0,0,0,0,0c-0.3-0.4-1.7-2.2-4.4-2.2c-3.4,0-5.7,2-5.7,7v15.9
			c0,5.1,2.3,7.1,5.7,7.1c2.7,0,4.2-1.8,4.4-2.2c0,0,0,0,0,0c0.2,1.1,1.1,1.9,2.2,1.9c1.2,0,2.2-1,2.2-2.3v-2.3v-1.5V15.2v-1.5v-2.3
			C44.1,10.2,43.1,9.2,41.9,9.2z M39.3,30.9c0,2.7-0.8,3.6-2.5,3.6c-1.6,0-2.5-0.9-2.5-3.6V17c0-2.7,0.9-3.7,2.5-3.7
			c1.2,0,2.5,0.7,2.5,2.6V30.9z"/>
		<path class="st0" d="M77.1,34.5L77.1,34.5c-3,0.2-3.3-0.9-3.3-3.3V13.6l1.5,0c1.2,0,2.2-1,2.2-2.2c0-1.2-1-2.2-2.2-2.2v0h-1.5v-5
			c0-1.3-1.1-2.4-2.4-2.4s-2.4,1.1-2.4,2.4v5h-1.5l0,2.2V9.2c-1.2,0-2.2,1-2.2,2.2s1,2.2,2.2,2.2l0,0h1.5v17.8
			c0,4.5,1.4,7.5,6.4,7.5c0.7,0,1.6-0.1,2.1-0.1l0,0c1.2-0.1,2.1-1.2,2-2.3C79.3,35.3,78.3,34.4,77.1,34.5z"/>
	</g>
	<g>
		<g>
			<path class="st0" d="M155,0c-2.8,0-5,2.3-5,5.1c0,2.8,2.3,5.1,5,5.1c2.8,0,5-2.3,5-5.1C160,2.2,157.8,0,155,0z M155,9.2
				c-2.3,0-4.1-1.9-4.1-4.1c0-2.3,1.8-4.1,4.1-4.1c2.3,0,4.1,1.8,4.1,4.1C159.1,7.3,157.2,9.2,155,9.2z"/>
			<path class="st0" d="M157.2,4.1c0-1.1-1-1.7-1.9-1.7h-1.7c-0.3,0-0.6,0.3-0.6,0.6v4.4c0,0.3,0.2,0.5,0.5,0.5
				c0.3,0,0.5-0.2,0.5-0.5V5.8h0.8l1.2,1.9c0.1,0.1,0.3,0.2,0.4,0.2c0.3,0,0.5-0.3,0.5-0.5c0-0.1,0-0.2-0.1-0.3l-0.9-1.4
				C156.7,5.4,157.2,4.9,157.2,4.1z M156.1,4.1c0,0.4-0.4,0.7-0.8,0.7h-1.2V3.3h1.2C155.7,3.3,156.1,3.6,156.1,4.1z"/>
		</g>
	</g>
</g>
</svg>
