<svg width="392" height="341" viewBox="0 0 392 341" fill="none" xmlns="http://www.w3.org/2000/svg">
<path d="M106.746 227.629H135.17C150.254 227.629 162.465 216.752 162.465 203.31V202.899C162.465 196.64 159.797 190.894 155.385 186.584C159.797 182.274 162.465 176.528 162.465 170.166V169.858C162.465 156.416 150.254 145.539 135.17 145.539H106.746V227.629ZM124.704 178.58V161.547H134.862C140.096 161.547 144.2 165.138 144.508 169.653V170.474C144.2 174.886 140.198 178.478 135.17 178.58H124.704ZM124.704 211.622V194.588H135.17C140.198 194.691 144.2 198.282 144.508 202.694V203.515C144.2 208.03 140.096 211.622 134.862 211.622H124.704ZM175.289 227.629H194.888V196.332H226.698V227.629H246.297V152.722C246.297 148.72 243.013 145.539 239.114 145.539H226.698V176.836H194.888V152.722C194.888 148.72 191.707 145.539 187.705 145.539H175.289V227.629ZM261.668 227.629H281.164V204.336H291.733C304.252 204.028 314.821 195.922 318.72 184.737C319.849 181.659 320.465 178.375 320.465 174.886C320.465 171.5 319.849 168.216 318.72 165.138C314.821 154.056 304.457 146.052 292.144 145.539H261.668V165.138H290.81H291.015H291.323C296.556 165.241 300.866 169.653 300.866 174.989C300.866 180.119 296.351 184.737 291.323 184.737H291.015H268.748C264.849 184.737 261.668 187.918 261.668 191.92V227.629Z" fill="black"/>
<path d="M205.226 102.112H200.238C196.303 102.112 193.112 105.302 193.112 109.238V112.088C193.112 116.023 196.303 119.214 200.238 119.214H205.226C209.162 119.214 212.352 116.023 212.352 112.088V109.238C212.352 105.302 209.162 102.112 205.226 102.112Z" fill="black"/>
<path d="M201.663 102.112H188.124V115.651H201.663V102.112Z" fill="black"/>
<path d="M48.5991 143.442H68.9165L76.8177 126.511H106.062L113.964 143.442H134.076L134.281 143.339L97.9559 65.661C96.8272 63.199 94.3645 61.454 91.3887 61.454C88.4129 61.454 85.8476 63.301 84.8215 65.866L84.7189 65.969L48.5991 143.442ZM85.4371 108.143L91.4913 95.111L97.4429 108.143H85.4371ZM177.827 143.442C182.445 143.442 186.857 142.724 190.962 141.287C191.68 141.082 192.296 140.876 192.911 140.569H193.117V140.466L194.758 139.85C195.169 139.645 195.682 139.44 196.092 139.132C197.016 138.722 197.939 138.209 198.76 137.695L199.992 136.977L202.454 135.335C203.994 134.104 205.533 132.77 206.867 131.436L206.969 131.333C210.663 127.639 212.613 122.611 212.613 117.378V109.58C212.613 105.68 209.432 102.499 205.43 102.499H193.117V117.583L191.577 119.02L189.936 120.251H189.833C189.115 120.764 188.396 121.175 187.575 121.585C186.96 121.893 186.447 122.201 185.831 122.406C185.01 122.714 184.087 123.022 183.266 123.227C181.521 123.638 179.674 123.945 177.827 123.945C175.98 123.945 174.133 123.638 172.491 123.227C171.568 123.022 170.644 122.714 169.823 122.406C169.208 122.201 168.695 121.893 168.182 121.585C167.361 121.175 166.54 120.764 165.822 120.251L164.898 119.636L164.693 119.43C164.282 119.123 163.975 118.815 163.667 118.61C159.152 114.608 156.279 108.861 156.279 102.397C156.279 95.932 159.152 90.083 163.667 86.184V86.081C163.975 85.876 164.282 85.568 164.693 85.363V85.26H164.795C164.795 85.158 164.898 85.158 164.898 85.158L165.822 84.542C166.027 84.337 166.335 84.132 166.54 84.029L167.156 83.721L167.463 83.413L168.182 83.105C168.695 82.798 169.208 82.592 169.823 82.387L170.644 82.079C170.85 81.977 171.157 81.874 171.363 81.874L171.67 81.669C171.978 81.669 172.184 81.566 172.491 81.464C174.133 81.053 175.98 80.848 177.827 80.848C179.674 80.848 181.521 81.053 183.266 81.464C183.471 81.566 183.779 81.669 183.984 81.669C184.087 81.771 184.189 81.771 184.395 81.874C184.6 81.874 184.805 81.977 185.01 82.079L185.831 82.387C186.447 82.592 186.96 82.798 187.575 83.105L188.396 83.619L189.012 83.926C189.32 84.132 189.628 84.337 189.833 84.542H189.936C191.064 85.26 192.09 86.184 193.117 87.107L206.867 73.357C205.533 71.921 203.994 70.689 202.454 69.458C201.633 68.842 200.813 68.329 199.992 67.816C198.35 66.687 196.605 65.764 194.758 64.943C194.143 64.635 193.527 64.43 192.911 64.122L190.962 63.506C186.857 62.07 182.445 61.352 177.827 61.352C173.21 61.352 168.797 62.07 164.693 63.506L162.743 64.122C162.128 64.43 161.512 64.635 160.896 64.943C159.152 65.764 157.407 66.687 155.663 67.816C154.842 68.329 154.021 68.842 153.303 69.458C151.661 70.689 150.224 71.921 148.788 73.357C141.4 80.745 136.782 91.007 136.782 102.397C136.782 113.684 141.4 123.945 148.788 131.436C150.224 132.77 151.661 134.104 153.303 135.335C154.021 135.848 154.842 136.464 155.663 136.977C156.073 137.285 156.586 137.49 156.997 137.798L159.562 139.132L160.896 139.85C161.512 140.056 162.128 140.363 162.743 140.569C163.359 140.876 164.077 141.082 164.693 141.287C168.797 142.724 173.21 143.442 177.827 143.442ZM217.75 143.442H238.067L245.969 126.511H275.213L283.114 143.442H303.227L303.432 143.339L267.107 65.661C265.978 63.199 263.515 61.454 260.54 61.454C257.564 61.454 254.999 63.301 253.972 65.866L253.87 65.969L217.75 143.442ZM254.588 108.143L260.642 95.111L266.594 108.143H254.588ZM329.287 143.442H348.783V80.848H374.642V68.534C374.642 64.635 371.461 61.352 367.459 61.352H303.428V80.848H329.287V143.442Z" fill="black"/>
<path d="M391.731 249.015C358.818 295.644 308.729 327.289 252.484 336.987C196.238 346.686 138.445 333.644 91.8156 300.731C45.1867 267.818 13.542 217.729 3.84295 161.484C-5.85539 105.238 7.18641 47.445 40.0995 0.815704L64.7137 18.189C36.4083 58.29 25.1921 107.993 33.533 156.365C41.8738 204.735 69.0883 247.811 109.189 276.117C149.29 304.422 198.993 315.638 247.364 307.297C295.735 298.957 338.811 271.742 367.117 231.641L391.731 249.015Z" fill="black"/>
</svg>
