<svg width="432" height="432" viewBox="0 0 432 432" fill="none" xmlns="http://www.w3.org/2000/svg">
<g id="logo">
<path id="bhp" d="M106.746 318.629H135.17C150.254 318.629 162.465 307.752 162.465 294.31V293.899C162.465 287.64 159.797 281.894 155.385 277.584C159.797 273.274 162.465 267.528 162.465 261.166V260.858C162.465 247.416 150.254 236.539 135.17 236.539H106.746V318.629ZM124.704 269.58V252.547H134.862C140.096 252.547 144.2 256.138 144.508 260.653V261.474C144.2 265.886 140.198 269.478 135.17 269.58H124.704ZM124.704 302.622V285.588H135.17C140.198 285.691 144.2 289.282 144.508 293.694V294.515C144.2 299.03 140.096 302.622 134.862 302.622H124.704ZM175.289 318.629H194.888V287.332H226.698V318.629H246.297V243.722C246.297 239.72 243.013 236.539 239.114 236.539H226.698V267.836H194.888V243.722C194.888 239.72 191.707 236.539 187.705 236.539H175.289V318.629ZM261.668 318.629H281.164V295.336H291.733C304.252 295.028 314.821 286.922 318.72 275.737C319.849 272.659 320.465 269.375 320.465 265.886C320.465 262.5 319.849 259.216 318.72 256.138C314.821 245.056 304.457 237.052 292.144 236.539H261.668V256.138H290.81H291.015H291.323C296.556 256.241 300.866 260.653 300.866 265.989C300.866 271.119 296.351 275.737 291.323 275.737H291.015H268.748C264.849 275.737 261.668 278.918 261.668 282.92V318.629Z" fill="#ffffff"/>
<g id="agat">
<path id="Rectangle 1" d="M205.226 193.112H200.238C196.303 193.112 193.112 196.302 193.112 200.238V203.088C193.112 207.023 196.303 210.214 200.238 210.214H205.226C209.162 210.214 212.352 207.023 212.352 203.088V200.238C212.352 196.302 209.162 193.112 205.226 193.112Z" fill="#ffffff"/>
<path id="Rectangle 2" d="M201.663 193.112H188.124V206.651H201.663V193.112Z" fill="#ffffff"/>
<path id="agat 2" d="M48.5992 234.442H68.9166L76.8178 217.511H106.062L113.964 234.442H134.076L134.281 234.339L97.956 156.661C96.8273 154.199 94.3646 152.454 91.3888 152.454C88.413 152.454 85.8477 154.301 84.8216 156.866L84.719 156.969L48.5992 234.442ZM85.4372 199.143L91.4914 186.111L97.443 199.143H85.4372ZM177.827 234.442C182.445 234.442 186.857 233.724 190.962 232.287C191.68 232.082 192.296 231.876 192.911 231.569H193.117V231.466L194.758 230.85C195.169 230.645 195.682 230.44 196.092 230.132C197.016 229.722 197.939 229.209 198.76 228.695L199.992 227.977L202.454 226.335C203.994 225.104 205.533 223.77 206.867 222.436L206.969 222.333C210.663 218.639 212.613 213.611 212.613 208.378V200.58C212.613 196.68 209.432 193.499 205.43 193.499H193.117V208.583L191.577 210.02L189.936 211.251H189.833C189.115 211.764 188.396 212.175 187.575 212.585C186.96 212.893 186.447 213.201 185.831 213.406C185.01 213.714 184.087 214.022 183.266 214.227C181.521 214.638 179.674 214.945 177.827 214.945C175.98 214.945 174.133 214.638 172.491 214.227C171.568 214.022 170.644 213.714 169.823 213.406C169.208 213.201 168.695 212.893 168.182 212.585C167.361 212.175 166.54 211.764 165.822 211.251L164.898 210.636L164.693 210.43C164.282 210.123 163.975 209.815 163.667 209.61C159.152 205.608 156.279 199.861 156.279 193.397C156.279 186.932 159.152 181.083 163.667 177.184V177.081C163.975 176.876 164.282 176.568 164.693 176.363V176.26H164.795C164.795 176.158 164.898 176.158 164.898 176.158L165.822 175.542C166.027 175.337 166.335 175.132 166.54 175.029L167.156 174.721L167.463 174.413L168.182 174.105C168.695 173.798 169.208 173.592 169.823 173.387L170.644 173.079C170.85 172.977 171.157 172.874 171.363 172.874L171.67 172.669C171.978 172.669 172.184 172.566 172.491 172.464C174.133 172.053 175.98 171.848 177.827 171.848C179.674 171.848 181.521 172.053 183.266 172.464C183.471 172.566 183.779 172.669 183.984 172.669C184.087 172.771 184.189 172.771 184.395 172.874C184.6 172.874 184.805 172.977 185.01 173.079L185.831 173.387C186.447 173.592 186.96 173.798 187.575 174.105L188.396 174.619L189.012 174.926C189.32 175.132 189.628 175.337 189.833 175.542H189.936C191.064 176.26 192.09 177.184 193.117 178.107L206.867 164.357C205.533 162.921 203.994 161.689 202.454 160.458C201.633 159.842 200.813 159.329 199.992 158.816C198.35 157.687 196.605 156.764 194.758 155.943C194.143 155.635 193.527 155.43 192.911 155.122L190.962 154.506C186.857 153.07 182.445 152.352 177.827 152.352C173.21 152.352 168.797 153.07 164.693 154.506L162.743 155.122C162.128 155.43 161.512 155.635 160.896 155.943C159.152 156.764 157.407 157.687 155.663 158.816C154.842 159.329 154.021 159.842 153.303 160.458C151.661 161.689 150.224 162.921 148.788 164.357C141.4 171.745 136.782 182.007 136.782 193.397C136.782 204.684 141.4 214.945 148.788 222.436C150.224 223.77 151.661 225.104 153.303 226.335C154.021 226.848 154.842 227.464 155.663 227.977C156.073 228.285 156.586 228.49 156.997 228.798L159.562 230.132L160.896 230.85C161.512 231.056 162.128 231.363 162.743 231.569C163.359 231.876 164.077 232.082 164.693 232.287C168.797 233.724 173.21 234.442 177.827 234.442ZM217.75 234.442H238.067L245.969 217.511H275.213L283.114 234.442H303.227L303.432 234.339L267.107 156.661C265.978 154.199 263.515 152.454 260.54 152.454C257.564 152.454 254.999 154.301 253.972 156.866L253.87 156.969L217.75 234.442ZM254.588 199.143L260.642 186.111L266.594 199.143H254.588ZM329.287 234.442H348.783V171.848H374.642V159.534C374.642 155.635 371.461 152.352 367.459 152.352H303.428V171.848H329.287V234.442Z" fill="#ffffff"/>
</g>
<g id="logoAnimatableCircle">
<path id="halfCircleBlack" d="M391.731 340.015C358.818 386.644 308.729 418.289 252.484 427.987C196.238 437.686 138.445 424.644 91.8156 391.731C45.1867 358.818 13.542 308.729 3.84295 252.484C-5.85539 196.238 7.18641 138.445 40.0995 91.8157L64.7137 109.189C36.4083 149.29 25.1921 198.993 33.533 247.365C41.8738 295.735 69.0883 338.811 109.189 367.117C149.29 395.422 198.993 406.638 247.364 398.297C295.735 389.957 338.811 362.742 367.117 322.641L391.731 340.015Z" fill="#ffffff"/>
<path id="halfCircleTransparent" d="M40.0995 91.8157C73.0133 45.1867 123.102 13.5421 179.347 3.843C235.592 -5.85534 293.386 7.18647 340.015 40.1003C386.644 73.0133 418.289 123.102 427.987 179.347C437.686 235.592 424.644 293.386 391.731 340.015L367.117 322.641C395.422 282.54 406.638 232.837 398.297 184.467C389.956 136.096 362.742 93.0193 322.641 64.7138C282.54 36.4083 232.837 25.1929 184.466 33.533C136.096 41.8739 93.0192 69.0884 64.7137 109.189L40.0995 91.8157Z" fill="none"/>
</g>
</g>
</svg>
