<svg width="1920" height="1080" viewBox="0 0 1920 1080" fill="none" xmlns="http://www.w3.org/2000/svg">
<mask id="mask0" mask-type="alpha" maskUnits="userSpaceOnUse" x="0" y="0" width="1920" height="1080">
<rect width="1920" height="1080" fill="white"/>
</mask>
<g mask="url(#mask0)">
<g clip-path="url(#clip0)">
<path d="M441.04 460.264L375.37 390.546C374.242 389.346 372.605 389.027 371.002 389.403L277.605 411.362C276.002 411.739 274.679 412.755 274.204 414.332L246.502 506.101C246.029 507.677 246.42 509.338 247.545 510.539L313.258 580.438C314.386 581.638 316.066 582.141 317.669 581.765L411.065 559.806C412.668 559.429 413.943 558.206 414.418 556.629L442.096 464.759C442.57 463.183 442.166 461.464 441.04 460.264ZM406.369 551.446L318.148 572.187L256.118 506.326L282.302 419.722L370.522 398.98L432.553 464.844L406.369 551.446Z" fill="black"/>
</g>
<g clip-path="url(#clip1)">
<path d="M586.256 322.833L520.586 253.116C519.459 251.916 517.822 251.596 516.219 251.973L422.822 273.932C421.219 274.308 419.896 275.324 419.421 276.901L391.719 368.67C391.246 370.246 391.637 371.908 392.762 373.108L458.475 443.007C459.603 444.208 461.283 444.711 462.886 444.334L556.282 422.375C557.885 421.998 559.159 420.775 559.634 419.199L587.313 327.328C587.786 325.752 587.382 324.034 586.256 322.833ZM551.586 414.015L463.365 434.757L401.335 368.895L427.518 282.292L515.739 261.55L577.769 327.413L551.586 414.015Z" fill="black"/>
</g>
<g clip-path="url(#clip2)">
<path d="M632.282 518.591L566.612 448.874C565.484 447.674 563.847 447.354 562.244 447.731L468.847 469.689C467.244 470.066 465.921 471.082 465.446 472.659L437.744 564.428C437.271 566.004 437.662 567.665 438.787 568.866L504.5 638.765C505.628 639.965 507.308 640.469 508.911 640.092L602.308 618.133C603.91 617.756 605.185 616.533 605.66 614.957L633.338 523.086C633.812 521.51 633.408 519.791 632.282 518.591ZM597.611 609.773L509.39 630.515L447.361 564.653L473.544 478.049L561.764 457.308L623.795 523.171L597.611 609.773Z" fill="black"/>
</g>
<g clip-path="url(#clip3)">
<path d="M494.205 -68.6852L428.535 -138.403C427.407 -139.603 425.77 -139.923 424.168 -139.546L330.771 -117.587C329.168 -117.21 327.845 -116.194 327.37 -114.618L299.667 -22.8483C299.195 -21.2722 299.585 -19.6109 300.711 -18.4105L366.424 51.4888C367.551 52.689 369.232 53.1921 370.834 52.8153L464.231 30.8565C465.834 30.4797 467.108 29.2569 467.583 27.6802L495.262 -64.1903C495.735 -65.7666 495.331 -67.4849 494.205 -68.6852ZM459.535 22.4964L371.314 43.2383L309.284 -22.6231L335.467 -109.227L423.688 -129.969L485.718 -64.1051L459.535 22.4964Z" fill="black"/>
</g>
<g clip-path="url(#clip4)">
<path d="M540.231 127.074L474.561 57.3559C473.433 56.1561 471.796 55.8361 470.193 56.2129L376.796 78.1718C375.194 78.5486 373.871 79.5646 373.396 81.1413L345.693 172.91C345.221 174.487 345.611 176.148 346.737 177.348L412.449 247.248C413.577 248.448 415.257 248.951 416.86 248.574L510.257 226.615C511.86 226.238 513.134 225.016 513.609 223.439L541.287 131.568C541.761 129.992 541.357 128.274 540.231 127.074ZM505.561 218.255L417.34 238.997L355.31 173.136L381.493 86.5319L469.714 65.7901L531.744 131.654L505.561 218.255Z" fill="black"/>
</g>
<g clip-path="url(#clip5)">
<path d="M203.772 206.18L138.102 136.462C136.974 135.263 135.337 134.943 133.734 135.319L40.3369 157.278C38.7341 157.655 37.4112 158.671 36.9362 160.248L9.23385 252.017C8.76116 253.593 9.15175 255.254 10.2772 256.455L75.99 326.354C77.1179 327.554 78.798 328.057 80.4008 327.681L173.797 305.722C175.4 305.345 176.675 304.122 177.149 302.545L204.828 210.675C205.301 209.099 204.897 207.38 203.772 206.18ZM169.101 297.362L80.8802 318.103L18.8504 252.242L45.0336 165.638L133.254 144.897L195.284 210.76L169.101 297.362Z" fill="black"/>
</g>
<g clip-path="url(#clip6)">
<path d="M348.988 68.7484L283.318 -0.969264C282.191 -2.16913 280.553 -2.4891 278.951 -2.11227L185.554 19.8466C183.951 20.2235 182.628 21.2394 182.153 22.8161L154.451 114.585C153.978 116.161 154.369 117.823 155.494 119.023L221.207 188.922C222.335 190.123 224.015 190.626 225.618 190.249L319.014 168.29C320.617 167.913 321.891 166.69 322.366 165.114L350.045 73.2433C350.518 71.6669 350.114 69.9487 348.988 68.7484ZM314.318 159.93L226.097 180.672L164.067 114.811L190.25 28.2067L278.471 7.46487L340.501 73.3285L314.318 159.93Z" fill="black"/>
</g>
<g clip-path="url(#clip7)">
<path d="M395.014 264.507L329.344 194.79C328.216 193.59 326.579 193.27 324.977 193.647L231.58 215.605C229.977 215.982 228.654 216.998 228.179 218.575L200.477 310.344C200.004 311.92 200.394 313.581 201.52 314.782L267.233 384.681C268.361 385.881 270.041 386.385 271.643 386.008L365.04 364.049C366.643 363.672 367.917 362.449 368.392 360.873L396.071 269.002C396.544 267.426 396.14 265.707 395.014 264.507ZM360.344 355.689L272.123 376.431L210.093 310.569L236.276 223.965L324.497 203.224L386.527 269.087L360.344 355.689Z" fill="black"/>
</g>
<g clip-path="url(#clip8)">
<path d="M104.58 539.371L38.9101 469.654C37.7824 468.454 36.1453 468.134 34.5425 468.511L-58.8545 490.47C-60.4573 490.847 -61.7802 491.862 -62.2552 493.439L-89.9576 585.208C-90.4302 586.784 -90.0397 588.446 -88.9142 589.646L-23.2014 659.545C-22.0735 660.746 -20.3934 661.249 -18.7906 660.872L74.606 638.913C76.2087 638.536 77.4831 637.314 77.9581 635.737L105.637 543.866C106.11 542.29 105.706 540.572 104.58 539.371ZM69.9097 630.553L-18.3112 651.295L-80.341 585.434L-54.1578 498.83L34.0627 478.088L96.093 543.952L69.9097 630.553Z" fill="black"/>
</g>
<g clip-path="url(#clip9)">
<path d="M249.797 401.939L184.127 332.221C182.999 331.021 181.362 330.701 179.759 331.078L86.3623 353.037C84.7595 353.414 83.4365 354.43 82.9616 356.007L55.2592 447.776C54.7866 449.352 55.1771 451.013 56.3026 452.214L122.015 522.113C123.143 523.313 124.823 523.816 126.426 523.439L219.823 501.481C221.426 501.104 222.7 499.881 223.175 498.304L250.853 406.434C251.327 404.857 250.923 403.139 249.797 401.939ZM215.126 493.12L126.906 513.862L64.8758 448.001L91.059 361.397L179.279 340.655L241.31 406.519L215.126 493.12Z" fill="black"/>
</g>
<g clip-path="url(#clip10)">
<path d="M295.822 597.698L230.152 527.98C229.025 526.78 227.387 526.46 225.785 526.837L132.388 548.796C130.785 549.173 129.462 550.189 128.987 551.765L101.285 643.534C100.812 645.111 101.203 646.772 102.328 647.972L168.041 717.872C169.169 719.072 170.849 719.575 172.452 719.198L265.848 697.239C267.451 696.862 268.725 695.64 269.2 694.063L296.879 602.192C297.352 600.616 296.948 598.898 295.822 597.698ZM261.152 688.879L172.931 709.621L110.901 643.76L137.084 557.156L225.305 536.414L287.335 602.278L261.152 688.879Z" fill="black"/>
</g>
<g clip-path="url(#clip11)">
<path d="M157.746 10.4232L92.0757 -59.2945C90.9479 -60.4943 89.3108 -60.8143 87.708 -60.4375L-5.68896 -38.4786C-7.29173 -38.1017 -8.61472 -37.0858 -9.08971 -35.5091L-36.792 56.2601C-37.2647 57.8362 -36.8741 59.4975 -35.7486 60.6979L29.9641 130.597C31.092 131.797 32.7721 132.301 34.3749 131.924L127.772 109.965C129.374 109.588 130.649 108.365 131.124 106.789L158.802 14.9181C159.276 13.3417 158.872 11.6235 157.746 10.4232ZM123.075 101.605L34.8543 122.347L-27.1755 56.4853L-0.992262 -30.1185L87.2282 -50.8603L149.259 15.0033L123.075 101.605Z" fill="black"/>
</g>
<g clip-path="url(#clip12)">
<path d="M12.5289 147.854L-53.1411 78.1362C-54.2689 76.9363 -55.906 76.6164 -57.5088 76.9932L-150.906 98.9521C-152.509 99.3289 -153.832 100.345 -154.307 101.922L-182.009 193.691C-182.482 195.267 -182.091 196.928 -180.965 198.129L-115.253 268.028C-114.125 269.228 -112.445 269.731 -110.842 269.354L-17.4453 247.396C-15.8425 247.019 -14.5682 245.796 -14.0932 244.219L13.5853 152.349C14.0588 150.772 13.6548 149.054 12.5289 147.854ZM-22.1416 239.035L-110.362 259.777L-172.392 193.916L-146.209 107.312L-57.9886 86.5703L4.04177 152.434L-22.1416 239.035Z" fill="black"/>
</g>
<g clip-path="url(#clip13)">
<path d="M58.5543 343.613L-7.11575 273.895C-8.24352 272.695 -9.88061 272.375 -11.4834 272.752L-104.88 294.711C-106.483 295.088 -107.806 296.104 -108.281 297.68L-135.983 389.45C-136.456 391.026 -136.066 392.687 -134.94 393.887L-69.2273 463.787C-68.0994 464.987 -66.4193 465.49 -64.8165 465.113L28.5801 443.154C30.1829 442.778 31.4572 441.555 31.9322 439.978L59.6107 348.108C60.0842 346.531 59.6802 344.813 58.5543 343.613ZM23.8838 434.794L-64.3371 455.536L-126.367 389.675L-100.184 303.071L-11.9632 282.329L50.0672 348.193L23.8838 434.794Z" fill="black"/>
</g>
<g clip-path="url(#clip14)">
<path d="M728.597 173.164L662.927 103.447C661.799 102.247 660.162 101.927 658.559 102.304L565.162 124.263C563.559 124.639 562.236 125.655 561.761 127.232L534.059 219.001C533.586 220.577 533.977 222.239 535.102 223.439L600.815 293.338C601.943 294.539 603.623 295.042 605.226 294.665L698.623 272.706C700.225 272.329 701.5 271.107 701.975 269.53L729.653 177.659C730.127 176.083 729.723 174.365 728.597 173.164ZM693.926 264.346L605.705 285.088L543.676 219.227L569.859 132.623L658.079 111.881L720.11 177.745L693.926 264.346Z" fill="black"/>
</g>
<g clip-path="url(#clip15)">
<path d="M685.448 -10.3571L619.778 -80.0747C618.65 -81.2746 617.013 -81.5946 615.41 -81.2177L522.013 -59.2588C520.41 -58.882 519.087 -57.8661 518.612 -56.2894L490.91 35.4798C490.437 37.056 490.828 38.7172 491.954 39.9176L557.666 109.817C558.794 111.017 560.474 111.52 562.077 111.143L655.474 89.1846C657.076 88.8078 658.351 87.585 658.826 86.0083L686.504 -5.86219C686.978 -7.43852 686.574 -9.15676 685.448 -10.3571ZM650.777 80.8245L562.556 101.566L500.527 35.705L526.71 -50.8988L614.93 -71.6406L676.961 -5.77697L650.777 80.8245Z" fill="black"/>
</g>
<g clip-path="url(#clip16)">
<path d="M873.814 35.7337L808.144 -33.9839C807.016 -35.1838 805.379 -35.5037 803.776 -35.1269L710.379 -13.168C708.776 -12.7912 707.453 -11.7753 706.978 -10.1986L679.276 81.5706C678.803 83.1468 679.194 84.8081 680.319 86.0085L746.032 155.908C747.16 157.108 748.84 157.611 750.443 157.234L843.839 135.275C845.442 134.899 846.717 133.676 847.191 132.099L874.87 40.2286C875.343 38.6523 874.939 36.9341 873.814 35.7337ZM839.143 126.915L750.922 147.657L688.892 81.7959L715.076 -4.80796L803.296 -25.5498L865.326 40.3138L839.143 126.915Z" fill="black"/>
</g>
<g clip-path="url(#clip17)">
<path d="M919.839 231.492L854.169 161.774C853.041 160.574 851.404 160.254 849.801 160.631L756.404 182.59C754.802 182.967 753.479 183.983 753.004 185.559L725.301 277.328C724.829 278.905 725.219 280.566 726.345 281.766L792.057 351.666C793.185 352.866 794.865 353.369 796.468 352.992L889.865 331.033C891.468 330.656 892.742 329.434 893.217 327.857L920.895 235.986C921.369 234.41 920.965 232.692 919.839 231.492ZM885.168 322.673L796.948 343.415L734.918 277.554L761.101 190.95L849.321 170.208L911.352 236.072L885.168 322.673Z" fill="black"/>
</g>
<g clip-path="url(#clip18)">
<path d="M965.864 427.249L900.194 357.532C899.067 356.332 897.429 356.012 895.827 356.389L802.43 378.348C800.827 378.724 799.504 379.74 799.029 381.317L771.327 473.086C770.854 474.662 771.245 476.324 772.37 477.524L838.083 547.423C839.211 548.624 840.891 549.127 842.494 548.75L935.89 526.791C937.493 526.414 938.767 525.191 939.242 523.615L966.921 431.744C967.394 430.168 966.99 428.45 965.864 427.249ZM931.194 518.431L842.973 539.173L780.943 473.311L807.126 386.708L895.347 365.966L957.377 431.829L931.194 518.431Z" fill="black"/>
</g>
<g clip-path="url(#clip19)">
<path d="M1111.08 289.818L1045.41 220.1C1044.28 218.9 1042.65 218.58 1041.04 218.957L947.646 240.916C946.044 241.293 944.721 242.309 944.246 243.885L916.543 335.655C916.071 337.231 916.461 338.892 917.587 340.092L983.3 409.992C984.427 411.192 986.108 411.695 987.71 411.318L1081.11 389.359C1082.71 388.983 1083.98 387.76 1084.46 386.183L1112.14 294.313C1112.61 292.736 1112.21 291.018 1111.08 289.818ZM1076.41 380.999L988.19 401.741L926.16 335.88L952.343 249.276L1040.56 228.534L1102.59 294.398L1076.41 380.999Z" fill="black"/>
</g>
<g clip-path="url(#clip20)">
<path d="M1157.11 485.576L1091.44 415.858C1090.31 414.658 1088.67 414.338 1087.07 414.715L993.673 436.674C992.07 437.051 990.747 438.067 990.272 439.643L962.57 531.412C962.097 532.989 962.488 534.65 963.613 535.85L1029.33 605.75C1030.45 606.95 1032.13 607.453 1033.74 607.076L1127.13 585.117C1128.74 584.74 1130.01 583.518 1130.49 581.941L1158.16 490.07C1158.64 488.494 1158.23 486.776 1157.11 485.576ZM1122.44 576.757L1034.22 597.499L972.186 531.638L998.37 445.034L1086.59 424.292L1148.62 490.156L1122.44 576.757Z" fill="black"/>
</g>
<g clip-path="url(#clip21)">
<path d="M1638.78 269.037L1573.11 199.32C1571.99 198.12 1570.35 197.8 1568.75 198.177L1475.35 220.136C1473.75 220.513 1472.42 221.528 1471.95 223.105L1444.25 314.874C1443.77 316.451 1444.16 318.112 1445.29 319.312L1511 389.211C1512.13 390.412 1513.81 390.915 1515.41 390.538L1608.81 368.579C1610.41 368.202 1611.69 366.98 1612.16 365.403L1639.84 273.532C1640.31 271.956 1639.91 270.238 1638.78 269.037ZM1604.11 360.219L1515.89 380.961L1453.86 315.1L1480.05 228.496L1568.27 207.754L1630.3 273.618L1604.11 360.219Z" fill="black"/>
</g>
<g clip-path="url(#clip22)">
<path d="M1784 131.606L1718.33 61.8882C1717.2 60.6883 1715.57 60.3683 1713.96 60.7452L1620.57 82.704C1618.96 83.0809 1617.64 84.0968 1617.17 85.6735L1589.46 177.443C1588.99 179.019 1589.38 180.68 1590.51 181.881L1656.22 251.78C1657.35 252.98 1659.03 253.483 1660.63 253.106L1754.03 231.148C1755.63 230.771 1756.9 229.548 1757.38 227.971L1785.06 136.101C1785.53 134.524 1785.13 132.806 1784 131.606ZM1749.33 222.787L1661.11 243.529L1599.08 177.668L1625.26 91.0641L1713.48 70.3223L1775.51 136.186L1749.33 222.787Z" fill="black"/>
</g>
<g clip-path="url(#clip23)">
<path d="M1830.03 327.364L1764.36 257.646C1763.23 256.446 1761.59 256.126 1759.99 256.503L1666.59 278.462C1664.99 278.839 1663.67 279.855 1663.19 281.431L1635.49 373.201C1635.02 374.777 1635.41 376.438 1636.53 377.638L1702.25 447.538C1703.37 448.738 1705.05 449.241 1706.66 448.864L1800.05 426.905C1801.66 426.529 1802.93 425.306 1803.41 423.729L1831.08 331.859C1831.56 330.282 1831.15 328.564 1830.03 327.364ZM1795.36 418.545L1707.14 439.287L1645.11 373.426L1671.29 286.822L1759.51 266.08L1821.54 331.944L1795.36 418.545Z" fill="black"/>
</g>
<g clip-path="url(#clip24)">
<path d="M1737.98 -64.154L1672.31 -133.872C1671.18 -135.071 1669.54 -135.391 1667.94 -135.015L1574.54 -113.056C1572.94 -112.679 1571.62 -111.663 1571.14 -110.086L1543.44 -18.3171C1542.97 -16.7409 1543.36 -15.0796 1544.48 -13.8792L1610.19 56.02C1611.32 57.2203 1613 57.7234 1614.6 57.3466L1708 35.3878C1709.6 35.0109 1710.88 33.7882 1711.35 32.2115L1739.03 -59.6591C1739.51 -61.2354 1739.1 -62.9536 1737.98 -64.154ZM1703.31 27.0276L1615.08 47.7695L1553.05 -18.0918L1579.24 -104.696L1667.46 -125.437L1729.49 -59.5738L1703.31 27.0276Z" fill="black"/>
</g>
<g clip-path="url(#clip25)">
<path d="M774.623 368.924L708.953 299.207C707.825 298.007 706.188 297.687 704.585 298.064L611.188 320.022C609.585 320.399 608.262 321.415 607.787 322.992L580.085 414.761C579.612 416.337 580.003 417.998 581.128 419.199L646.841 489.098C647.969 490.298 649.649 490.802 651.252 490.425L744.648 468.466C746.251 468.089 747.526 466.866 748.001 465.29L775.679 373.419C776.153 371.843 775.749 370.124 774.623 368.924ZM739.952 460.106L651.731 480.848L589.701 414.986L615.885 328.382L704.105 307.641L766.136 373.504L739.952 460.106Z" fill="black"/>
</g>
<g clip-path="url(#clip26)">
<path d="M820.648 564.683L754.978 494.965C753.85 493.765 752.213 493.445 750.61 493.822L657.213 515.781C655.61 516.158 654.287 517.174 653.812 518.751L626.11 610.52C625.637 612.096 626.028 613.757 627.153 614.958L692.866 684.857C693.994 686.057 695.674 686.56 697.277 686.183L790.673 664.225C792.276 663.848 793.55 662.625 794.025 661.048L821.704 569.178C822.177 567.602 821.773 565.883 820.648 564.683ZM785.977 655.865L697.756 676.606L635.726 610.745L661.91 524.141L750.13 503.399L812.16 569.263L785.977 655.865Z" fill="black"/>
</g>
<g clip-path="url(#clip27)">
<path d="M1401.52 14.9535L1335.85 -54.7642C1334.72 -55.9641 1333.08 -56.284 1331.48 -55.9072L1238.08 -33.9483C1236.48 -33.5715 1235.16 -32.5555 1234.68 -30.9789L1206.98 60.7904C1206.51 62.3665 1206.9 64.0278 1208.02 65.2282L1273.73 135.127C1274.86 136.328 1276.54 136.831 1278.14 136.454L1371.54 114.495C1373.14 114.118 1374.42 112.896 1374.89 111.319L1402.57 19.4484C1403.05 17.872 1402.64 16.1538 1401.52 14.9535ZM1366.85 106.135L1278.62 126.877L1216.59 61.0156L1242.78 -25.5882L1331 -46.3301L1393.03 19.5336L1366.85 106.135Z" fill="black"/>
</g>
<g clip-path="url(#clip28)">
<path d="M1546.73 -122.479L1481.06 -192.197C1479.94 -193.397 1478.3 -193.717 1476.7 -193.34L1383.3 -171.381C1381.7 -171.004 1380.37 -169.988 1379.9 -168.411L1352.2 -76.6423C1351.72 -75.0661 1352.11 -73.4048 1353.24 -72.2044L1418.95 -2.30515C1420.08 -1.10492 1421.76 -0.601806 1423.36 -0.97864L1516.76 -22.9374C1518.36 -23.3143 1519.64 -24.537 1520.11 -26.1137L1547.79 -117.984C1548.26 -119.561 1547.86 -121.279 1546.73 -122.479ZM1512.06 -31.2976L1423.84 -10.5557L1361.81 -76.417L1388 -163.021L1476.22 -183.763L1538.25 -117.899L1512.06 -31.2976Z" fill="black"/>
</g>
<g clip-path="url(#clip29)">
<path d="M1592.76 73.2787L1527.09 3.56101C1525.96 2.36115 1524.32 2.04117 1522.72 2.41801L1429.32 24.3769C1427.72 24.7537 1426.4 25.7696 1425.92 27.3463L1398.22 119.116C1397.75 120.692 1398.14 122.353 1399.26 123.553L1464.98 193.453C1466.1 194.653 1467.78 195.156 1469.39 194.779L1562.78 172.82C1564.39 172.444 1565.66 171.221 1566.14 169.644L1593.81 77.7736C1594.29 76.1972 1593.88 74.479 1592.76 73.2787ZM1558.09 164.46L1469.87 185.202L1407.84 119.341L1434.02 32.737L1522.24 11.9951L1584.27 77.8588L1558.09 164.46Z" fill="black"/>
</g>
<g clip-path="url(#clip30)">
<path d="M1302.32 348.144L1236.65 278.426C1235.53 277.226 1233.89 276.906 1232.29 277.283L1138.89 299.242C1137.29 299.619 1135.96 300.635 1135.49 302.212L1107.79 393.981C1107.31 395.557 1107.7 397.218 1108.83 398.419L1174.54 468.318C1175.67 469.518 1177.35 470.021 1178.95 469.644L1272.35 447.686C1273.95 447.309 1275.23 446.086 1275.7 444.509L1303.38 352.639C1303.85 351.062 1303.45 349.344 1302.32 348.144ZM1267.65 439.325L1179.43 460.067L1117.4 394.206L1143.59 307.602L1231.81 286.86L1293.84 352.724L1267.65 439.325Z" fill="black"/>
</g>
<g clip-path="url(#clip31)">
<path d="M1447.54 210.711L1381.87 140.994C1380.74 139.794 1379.11 139.474 1377.5 139.851L1284.11 161.81C1282.5 162.186 1281.18 163.202 1280.71 164.779L1253 256.548C1252.53 258.124 1252.92 259.786 1254.05 260.986L1319.76 330.885C1320.89 332.086 1322.57 332.589 1324.17 332.212L1417.57 310.253C1419.17 309.876 1420.45 308.653 1420.92 307.077L1448.6 215.206C1449.07 213.63 1448.67 211.912 1447.54 210.711ZM1412.87 301.893L1324.65 322.635L1262.62 256.773L1288.8 170.17L1377.02 149.428L1439.05 215.291L1412.87 301.893Z" fill="black"/>
</g>
<g clip-path="url(#clip32)">
<path d="M1493.57 406.47L1427.9 336.752C1426.77 335.553 1425.13 335.233 1423.53 335.609L1330.13 357.568C1328.53 357.945 1327.21 358.961 1326.73 360.538L1299.03 452.307C1298.56 453.883 1298.95 455.544 1300.07 456.745L1365.78 526.644C1366.91 527.844 1368.59 528.347 1370.19 527.971L1463.59 506.012C1465.19 505.635 1466.47 504.412 1466.94 502.835L1494.62 410.965C1495.1 409.389 1494.69 407.67 1493.57 406.47ZM1458.9 497.652L1370.67 518.394L1308.64 452.532L1334.83 365.928L1423.05 345.187L1485.08 411.05L1458.9 497.652Z" fill="black"/>
</g>
<g clip-path="url(#clip33)">
<path d="M1065.06 94.0589L999.387 24.3413C998.259 23.1414 996.622 22.8214 995.019 23.1983L901.622 45.1572C900.019 45.534 898.696 46.5499 898.221 48.1266L870.519 139.896C870.046 141.472 870.437 143.133 871.562 144.334L937.275 214.233C938.403 215.433 940.083 215.936 941.686 215.559L1035.08 193.601C1036.69 193.224 1037.96 192.001 1038.43 190.424L1066.11 98.5538C1066.59 96.9775 1066.18 95.2592 1065.06 94.0589ZM1030.39 185.24L942.165 205.982L880.136 140.121L906.319 53.5172L994.539 32.7754L1056.57 98.639L1030.39 185.24Z" fill="black"/>
</g>
<g clip-path="url(#clip34)">
<path d="M1019.03 -101.699L953.36 -171.417C952.233 -172.616 950.595 -172.936 948.993 -172.56L855.596 -150.601C853.993 -150.224 852.67 -149.208 852.195 -147.631L824.493 -55.862C824.02 -54.2858 824.411 -52.6246 825.536 -51.4242L891.249 18.4751C892.377 19.6754 894.057 20.1785 895.66 19.8016L989.056 -2.15716C990.659 -2.53399 991.933 -3.75677 992.408 -5.33346L1020.09 -97.204C1020.56 -98.7803 1020.16 -100.499 1019.03 -101.699ZM984.36 -10.5173L896.139 10.2246L834.109 -55.6367L860.292 -142.241L948.513 -162.982L1010.54 -97.1188L984.36 -10.5173Z" fill="black"/>
</g>
<g clip-path="url(#clip35)">
<path d="M1019.03 -101.699L953.36 -171.417C952.233 -172.616 950.595 -172.936 948.993 -172.56L855.596 -150.601C853.993 -150.224 852.67 -149.208 852.195 -147.631L824.493 -55.862C824.02 -54.2858 824.411 -52.6246 825.536 -51.4242L891.249 18.4751C892.377 19.6754 894.057 20.1785 895.66 19.8016L989.056 -2.15716C990.659 -2.53399 991.933 -3.75677 992.408 -5.33346L1020.09 -97.204C1020.56 -98.7803 1020.16 -100.499 1019.03 -101.699ZM984.36 -10.5173L896.139 10.2246L834.109 -55.6367L860.292 -142.241L948.513 -162.982L1010.54 -97.1188L984.36 -10.5173Z" fill="black"/>
</g>
<g clip-path="url(#clip36)">
<path d="M1210.27 -43.3737L1144.6 -113.091C1143.48 -114.291 1141.84 -114.611 1140.24 -114.234L1046.84 -92.2755C1045.24 -91.8986 1043.91 -90.8827 1043.44 -89.306L1015.74 2.4632C1015.26 4.03936 1015.65 5.70063 1016.78 6.90103L1082.49 76.8003C1083.62 78.0005 1085.3 78.5036 1086.9 78.1268L1180.3 56.168C1181.9 55.7912 1183.18 54.5684 1183.65 52.9917L1211.33 -38.8788C1211.8 -40.4551 1211.4 -42.1734 1210.27 -43.3737ZM1175.6 47.8078L1087.38 68.5498L1025.35 2.68844L1051.54 -83.9154L1139.76 -104.657L1201.79 -38.7936L1175.6 47.8078Z" fill="black"/>
</g>
<g clip-path="url(#clip37)">
<path d="M1256.3 152.385L1190.63 82.6675C1189.5 81.4676 1187.86 81.1476 1186.26 81.5245L1092.86 103.483C1091.26 103.86 1089.94 104.876 1089.46 106.453L1061.76 198.222C1061.29 199.798 1061.68 201.459 1062.8 202.66L1128.52 272.559C1129.64 273.759 1131.32 274.262 1132.93 273.886L1226.32 251.927C1227.93 251.55 1229.2 250.327 1229.68 248.751L1257.35 156.88C1257.83 155.304 1257.42 153.585 1256.3 152.385ZM1221.63 243.567L1133.41 264.309L1071.38 198.447L1097.56 111.843L1185.78 91.1016L1247.81 156.965L1221.63 243.567Z" fill="black"/>
</g>
<g clip-path="url(#clip38)">
<path d="M579.115 1047.54L513.445 977.822C512.318 976.622 510.68 976.302 509.078 976.679L415.681 998.638C414.078 999.014 412.755 1000.03 412.28 1001.61L384.578 1093.38C384.105 1094.95 384.495 1096.61 385.621 1097.81L451.334 1167.71C452.462 1168.91 454.142 1169.42 455.745 1169.04L549.141 1147.08C550.744 1146.7 552.018 1145.48 552.493 1143.9L580.172 1052.03C580.645 1050.46 580.241 1048.74 579.115 1047.54ZM544.445 1138.72L456.224 1159.46L394.194 1093.6L420.377 1007L508.598 986.256L570.628 1052.12L544.445 1138.72Z" fill="black"/>
</g>
<g clip-path="url(#clip39)">
<path d="M487.065 656.023L421.395 586.305C420.267 585.105 418.63 584.785 417.027 585.162L323.63 607.121C322.027 607.498 320.704 608.514 320.229 610.09L292.527 701.86C292.054 703.436 292.445 705.097 293.57 706.298L359.283 776.197C360.411 777.397 362.091 777.9 363.694 777.523L457.09 755.565C458.693 755.188 459.967 753.965 460.442 752.388L488.121 660.518C488.594 658.941 488.19 657.223 487.065 656.023ZM452.394 747.204L364.173 767.946L302.143 702.085L328.327 615.481L416.547 594.739L478.577 660.603L452.394 747.204Z" fill="black"/>
</g>
<g clip-path="url(#clip40)">
<path d="M533.09 851.783L467.42 782.065C466.293 780.865 464.656 780.545 463.053 780.922L369.656 802.881C368.053 803.258 366.73 804.274 366.255 805.85L338.553 897.619C338.08 899.196 338.471 900.857 339.596 902.057L405.309 971.957C406.437 973.157 408.117 973.66 409.72 973.283L503.116 951.324C504.719 950.947 505.993 949.725 506.468 948.148L534.147 856.277C534.62 854.701 534.216 852.983 533.09 851.783ZM498.42 942.964L410.199 963.706L348.169 897.845L374.352 811.241L462.573 790.499L524.603 856.363L498.42 942.964Z" fill="black"/>
</g>
<g clip-path="url(#clip41)">
<path d="M196.631 930.888L130.961 861.17C129.833 859.971 128.196 859.651 126.593 860.027L33.1963 881.986C31.5935 882.363 30.2705 883.379 29.7955 884.956L2.09322 976.725C1.62054 978.301 2.01112 979.962 3.13662 981.163L68.8494 1051.06C69.9773 1052.26 71.6574 1052.77 73.2602 1052.39L166.657 1030.43C168.26 1030.05 169.534 1028.83 170.009 1027.25L197.687 935.383C198.161 933.807 197.757 932.088 196.631 930.888ZM161.96 1022.07L73.7396 1042.81L11.7098 976.95L37.893 890.346L126.113 869.605L188.144 935.468L161.96 1022.07Z" fill="black"/>
</g>
<g clip-path="url(#clip42)">
<path d="M341.848 793.455L276.178 723.738C275.05 722.538 273.413 722.218 271.81 722.595L178.413 744.554C176.81 744.93 175.487 745.946 175.012 747.523L147.31 839.292C146.837 840.868 147.228 842.53 148.353 843.73L214.066 913.629C215.194 914.83 216.874 915.333 218.477 914.956L311.874 892.997C313.476 892.62 314.751 891.398 315.226 889.821L342.904 797.95C343.378 796.374 342.974 794.656 341.848 793.455ZM307.177 884.637L218.956 905.379L156.927 839.518L183.11 752.914L271.33 732.172L333.361 798.036L307.177 884.637Z" fill="black"/>
</g>
<g clip-path="url(#clip43)">
<path d="M387.874 989.213L322.204 919.496C321.076 918.296 319.439 917.976 317.836 918.353L224.439 940.311C222.836 940.688 221.513 941.704 221.038 943.281L193.336 1035.05C192.863 1036.63 193.254 1038.29 194.379 1039.49L260.092 1109.39C261.22 1110.59 262.9 1111.09 264.503 1110.71L357.899 1088.75C359.502 1088.38 360.777 1087.16 361.252 1085.58L388.93 993.708C389.404 992.132 389 990.414 387.874 989.213ZM353.203 1080.39L264.982 1101.14L202.952 1035.28L229.136 948.672L317.356 927.93L379.386 993.793L353.203 1080.39Z" fill="black"/>
</g>
<g clip-path="url(#clip44)">
<path d="M242.655 1126.64L176.985 1056.93C175.857 1055.73 174.22 1055.41 172.617 1055.78L79.2202 1077.74C77.6174 1078.12 76.2945 1079.14 75.8195 1080.71L48.1171 1172.48C47.6445 1174.06 48.035 1175.72 49.1605 1176.92L114.873 1246.82C116.001 1248.02 117.681 1248.52 119.284 1248.15L212.681 1226.19C214.283 1225.81 215.558 1224.59 216.033 1223.01L243.711 1131.14C244.185 1129.56 243.781 1127.85 242.655 1126.64ZM207.984 1217.83L119.764 1238.57L57.7337 1172.71L83.9169 1086.1L172.137 1065.36L234.168 1131.22L207.984 1217.83Z" fill="black"/>
</g>
<g clip-path="url(#clip45)">
<path d="M150.605 735.129L84.935 665.412C83.8073 664.212 82.1702 663.892 80.5674 664.269L-12.8296 686.227C-14.4324 686.604 -15.7553 687.62 -16.2303 689.197L-43.9327 780.966C-44.4053 782.542 -44.0148 784.204 -42.8893 785.404L22.8235 855.303C23.9514 856.503 25.6315 857.007 27.2343 856.63L120.631 834.671C122.234 834.294 123.508 833.071 123.983 831.495L151.661 739.624C152.135 738.048 151.731 736.33 150.605 735.129ZM115.935 826.311L27.7137 847.053L-34.3161 781.191L-8.13289 694.588L80.0876 673.846L142.118 739.709L115.935 826.311Z" fill="black"/>
</g>
<g clip-path="url(#clip46)">
<path d="M5.38781 872.563L-60.2823 802.845C-61.41 801.645 -63.0471 801.325 -64.6499 801.702L-158.047 823.661C-159.65 824.038 -160.973 825.054 -161.448 826.631L-189.15 918.4C-189.623 919.976 -189.232 921.637 -188.107 922.838L-122.394 992.737C-121.266 993.937 -119.586 994.44 -117.983 994.063L-24.5864 972.105C-22.9836 971.728 -21.7093 970.505 -21.2343 968.928L6.44421 877.058C6.91767 875.481 6.51369 873.763 5.38781 872.563ZM-29.2827 963.744L-117.504 984.486L-179.533 918.625L-153.35 832.021L-65.1297 811.279L-3.09934 877.143L-29.2827 963.744Z" fill="black"/>
</g>
<g clip-path="url(#clip47)">
<path d="M51.4127 1068.32L-14.2573 998.603C-15.3851 997.403 -17.0222 997.083 -18.625 997.46L-112.022 1019.42C-113.625 1019.8 -114.948 1020.81 -115.423 1022.39L-143.125 1114.16C-143.598 1115.73 -143.207 1117.39 -142.082 1118.6L-76.3689 1188.49C-75.241 1189.69 -73.5609 1190.2 -71.9581 1189.82L21.4385 1167.86C23.0413 1167.49 24.3156 1166.26 24.7906 1164.69L52.4691 1072.82C52.9426 1071.24 52.5386 1069.52 51.4127 1068.32ZM16.7422 1159.5L-71.4787 1180.24L-133.508 1114.38L-107.325 1027.78L-19.1048 1007.04L42.9256 1072.9L16.7422 1159.5Z" fill="black"/>
</g>
<g clip-path="url(#clip48)">
<path d="M1929.22 -5.8268L1863.55 -75.5445C1862.42 -76.7443 1860.78 -77.0643 1859.18 -76.6875L1765.78 -54.7286C1764.18 -54.3517 1762.86 -53.3358 1762.38 -51.7591L1734.68 40.0101C1734.21 41.5862 1734.6 43.2475 1735.72 44.4479L1801.44 114.347C1802.57 115.547 1804.25 116.051 1805.85 115.674L1899.24 93.7149C1900.85 93.3381 1902.12 92.1153 1902.6 90.5386L1930.28 -1.33192C1930.75 -2.90825 1930.34 -4.62649 1929.22 -5.8268ZM1894.55 85.3548L1806.33 106.097L1744.3 40.2353L1770.48 -46.3685L1858.7 -67.1103L1920.73 -1.2467L1894.55 85.3548Z" fill="black"/>
</g>
<g clip-path="url(#clip49)">
<path d="M2120.46 52.4994L2054.79 -17.2183C2053.66 -18.4182 2052.03 -18.7381 2050.42 -18.3613L1957.03 3.5976C1955.42 3.97443 1954.1 4.99035 1953.63 6.56705L1925.92 98.3363C1925.45 99.9124 1925.84 101.574 1926.97 102.774L1992.68 172.673C1993.81 173.874 1995.49 174.377 1997.09 174L2090.49 152.041C2092.09 151.664 2093.36 150.441 2093.84 148.865L2121.52 56.9943C2121.99 55.4179 2121.59 53.6997 2120.46 52.4994ZM2085.79 143.681L1997.57 164.423L1935.54 98.5615L1961.72 11.9577L2049.94 -8.78415L2111.97 57.0795L2085.79 143.681Z" fill="black"/>
</g>
<g clip-path="url(#clip50)">
<path d="M1975.24 189.931L1909.57 120.213C1908.45 119.013 1906.81 118.694 1905.21 119.07L1811.81 141.029C1810.21 141.406 1808.88 142.422 1808.41 143.999L1780.71 235.768C1780.23 237.344 1780.62 239.005 1781.75 240.206L1847.46 310.105C1848.59 311.305 1850.27 311.808 1851.87 311.432L1945.27 289.473C1946.87 289.096 1948.15 287.873 1948.62 286.296L1976.3 194.426C1976.77 192.85 1976.37 191.131 1975.24 189.931ZM1940.57 281.113L1852.35 301.854L1790.32 235.993L1816.51 149.389L1904.73 128.647L1966.76 194.511L1940.57 281.113Z" fill="black"/>
</g>
<g clip-path="url(#clip51)">
<path d="M2021.27 385.69L1955.6 315.972C1954.47 314.772 1952.83 314.452 1951.23 314.829L1857.83 336.788C1856.23 337.165 1854.91 338.181 1854.43 339.757L1826.73 431.527C1826.26 433.103 1826.65 434.764 1827.78 435.965L1893.49 505.864C1894.62 507.064 1896.3 507.567 1897.9 507.19L1991.3 485.232C1992.9 484.855 1994.17 483.632 1994.65 482.055L2022.33 390.185C2022.8 388.608 2022.4 386.89 2021.27 385.69ZM1986.6 476.871L1898.38 497.613L1836.35 431.752L1862.53 345.148L1950.75 324.406L2012.78 390.27L1986.6 476.871Z" fill="black"/>
</g>
<g clip-path="url(#clip52)">
<path d="M721.456 897.873L655.786 828.156C654.658 826.956 653.021 826.636 651.418 827.013L558.021 848.972C556.418 849.348 555.095 850.364 554.62 851.941L526.918 943.71C526.445 945.286 526.836 946.948 527.961 948.148L593.674 1018.05C594.802 1019.25 596.482 1019.75 598.085 1019.37L691.481 997.415C693.084 997.038 694.359 995.815 694.834 994.239L722.512 902.368C722.986 900.792 722.582 899.074 721.456 897.873ZM686.785 989.055L598.564 1009.8L536.534 943.936L562.718 857.332L650.938 836.59L712.969 902.453L686.785 989.055Z" fill="black"/>
</g>
<g clip-path="url(#clip53)">
<path d="M678.307 714.349L612.637 644.631C611.509 643.431 609.872 643.111 608.27 643.488L514.873 665.447C513.27 665.824 511.947 666.84 511.472 668.417L483.769 760.186C483.297 761.762 483.687 763.423 484.813 764.624L550.526 834.523C551.654 835.723 553.334 836.226 554.936 835.849L648.333 813.891C649.936 813.514 651.21 812.291 651.685 810.714L679.364 718.844C679.837 717.268 679.433 715.549 678.307 714.349ZM643.637 805.531L555.416 826.272L493.386 760.411L519.569 673.807L607.79 653.065L669.82 718.929L643.637 805.531Z" fill="black"/>
</g>
<g clip-path="url(#clip54)">
<path d="M866.673 760.441L801.003 690.723C799.875 689.523 798.238 689.203 796.635 689.58L703.238 711.539C701.636 711.916 700.313 712.932 699.838 714.508L672.135 806.278C671.663 807.854 672.053 809.515 673.179 810.715L738.891 880.615C740.019 881.815 741.699 882.318 743.302 881.941L836.699 859.982C838.302 859.606 839.576 858.383 840.051 856.806L867.729 764.936C868.203 763.359 867.799 761.641 866.673 760.441ZM832.002 851.622L743.782 872.364L681.752 806.503L707.935 719.899L796.155 699.157L858.186 765.021L832.002 851.622Z" fill="black"/>
</g>
<g clip-path="url(#clip55)">
<path d="M912.698 956.199L847.028 886.481C845.901 885.281 844.263 884.961 842.661 885.338L749.264 907.297C747.661 907.674 746.338 908.69 745.863 910.266L718.161 1002.04C717.688 1003.61 718.079 1005.27 719.204 1006.47L784.917 1076.37C786.045 1077.57 787.725 1078.08 789.328 1077.7L882.724 1055.74C884.327 1055.36 885.601 1054.14 886.076 1052.56L913.755 960.693C914.228 959.117 913.824 957.399 912.698 956.199ZM878.028 1047.38L789.807 1068.12L727.777 1002.26L753.96 915.657L842.181 894.915L904.211 960.779L878.028 1047.38Z" fill="black"/>
</g>
<g clip-path="url(#clip56)">
<path d="M958.723 1151.96L893.053 1082.24C891.925 1081.04 890.288 1080.72 888.685 1081.09L795.288 1103.05C793.685 1103.43 792.362 1104.45 791.887 1106.02L764.185 1197.79C763.712 1199.37 764.103 1201.03 765.228 1202.23L830.941 1272.13C832.069 1273.33 833.749 1273.83 835.352 1273.46L928.749 1251.5C930.351 1251.12 931.626 1249.9 932.101 1248.32L959.779 1156.45C960.253 1154.87 959.849 1153.16 958.723 1151.96ZM924.052 1243.14L835.831 1263.88L773.802 1198.02L799.985 1111.41L888.205 1090.67L950.236 1156.54L924.052 1243.14Z" fill="black"/>
</g>
<g clip-path="url(#clip57)">
<path d="M1103.94 1014.52L1038.27 944.806C1037.14 943.606 1035.51 943.286 1033.9 943.663L940.506 965.622C938.903 965.999 937.58 967.015 937.105 968.591L909.403 1060.36C908.93 1061.94 909.321 1063.6 910.446 1064.8L976.159 1134.7C977.287 1135.9 978.967 1136.4 980.57 1136.02L1073.97 1114.07C1075.57 1113.69 1076.84 1112.47 1077.32 1110.89L1105 1019.02C1105.47 1017.44 1105.07 1015.72 1103.94 1014.52ZM1069.27 1105.71L981.049 1126.45L919.019 1060.59L945.203 973.982L1033.42 953.24L1095.45 1019.1L1069.27 1105.71Z" fill="black"/>
</g>
<g clip-path="url(#clip58)">
<path d="M1631.64 993.744L1565.97 924.026C1564.84 922.826 1563.21 922.506 1561.6 922.883L1468.21 944.842C1466.6 945.219 1465.28 946.234 1464.81 947.811L1437.1 1039.58C1436.63 1041.16 1437.02 1042.82 1438.15 1044.02L1503.86 1113.92C1504.99 1115.12 1506.67 1115.62 1508.27 1115.24L1601.67 1093.29C1603.27 1092.91 1604.54 1091.69 1605.02 1090.11L1632.7 998.238C1633.17 996.662 1632.77 994.944 1631.64 993.744ZM1596.97 1084.93L1508.75 1105.67L1446.72 1039.81L1472.9 953.202L1561.12 932.46L1623.15 998.324L1596.97 1084.93Z" fill="black"/>
</g>
<g clip-path="url(#clip59)">
<path d="M1776.86 856.313L1711.19 786.595C1710.06 785.395 1708.42 785.075 1706.82 785.452L1613.42 807.411C1611.82 807.788 1610.5 808.804 1610.02 810.381L1582.32 902.15C1581.85 903.726 1582.24 905.387 1583.37 906.588L1649.08 976.487C1650.21 977.687 1651.89 978.19 1653.49 977.813L1746.89 955.855C1748.49 955.478 1749.76 954.255 1750.24 952.678L1777.92 860.808C1778.39 859.231 1777.99 857.513 1776.86 856.313ZM1742.19 947.494L1653.97 968.236L1591.94 902.375L1618.12 815.771L1706.34 795.029L1768.37 860.893L1742.19 947.494Z" fill="black"/>
</g>
<g clip-path="url(#clip60)">
<path d="M1822.88 1052.07L1757.21 982.353C1756.09 981.153 1754.45 980.833 1752.85 981.21L1659.45 1003.17C1657.85 1003.55 1656.52 1004.56 1656.05 1006.14L1628.35 1097.91C1627.87 1099.48 1628.27 1101.14 1629.39 1102.35L1695.1 1172.24C1696.23 1173.44 1697.91 1173.95 1699.51 1173.57L1792.91 1151.61C1794.51 1151.24 1795.79 1150.01 1796.26 1148.44L1823.94 1056.57C1824.41 1054.99 1824.01 1053.27 1822.88 1052.07ZM1788.21 1143.25L1699.99 1163.99L1637.96 1098.13L1664.15 1011.53L1752.37 990.787L1814.4 1056.65L1788.21 1143.25Z" fill="black"/>
</g>
<g clip-path="url(#clip61)">
<path d="M1684.81 464.795L1619.14 395.078C1618.01 393.878 1616.37 393.558 1614.77 393.935L1521.38 415.893C1519.77 416.27 1518.45 417.286 1517.97 418.863L1490.27 510.632C1489.8 512.208 1490.19 513.87 1491.32 515.07L1557.03 584.969C1558.16 586.169 1559.84 586.673 1561.44 586.296L1654.84 564.337C1656.44 563.96 1657.71 562.737 1658.19 561.161L1685.87 469.29C1686.34 467.714 1685.94 465.996 1684.81 464.795ZM1650.14 555.977L1561.92 576.719L1499.89 510.857L1526.07 424.254L1614.29 403.512L1676.32 469.375L1650.14 555.977Z" fill="black"/>
</g>
<g clip-path="url(#clip62)">
<path d="M1730.84 660.553L1665.17 590.835C1664.04 589.636 1662.4 589.316 1660.8 589.692L1567.4 611.651C1565.8 612.028 1564.47 613.044 1564 614.621L1536.3 706.39C1535.82 707.966 1536.22 709.627 1537.34 710.828L1603.05 780.727C1604.18 781.927 1605.86 782.43 1607.46 782.054L1700.86 760.095C1702.46 759.718 1703.74 758.495 1704.21 756.918L1731.89 665.048C1732.36 663.472 1731.96 661.753 1730.84 660.553ZM1696.16 751.735L1607.94 772.477L1545.91 706.615L1572.1 620.011L1660.32 599.27L1722.35 665.133L1696.16 751.735Z" fill="black"/>
</g>
<g clip-path="url(#clip63)">
<path d="M767.482 1093.63L701.811 1023.91C700.684 1022.71 699.047 1022.39 697.444 1022.77L604.047 1044.73C602.444 1045.11 601.121 1046.12 600.646 1047.7L572.944 1139.47C572.471 1141.04 572.862 1142.7 573.987 1143.9L639.7 1213.8C640.828 1215 642.508 1215.51 644.111 1215.13L737.507 1193.17C739.11 1192.8 740.384 1191.57 740.859 1190L768.538 1098.13C769.011 1096.55 768.607 1094.83 767.482 1093.63ZM732.811 1184.81L644.59 1205.55L582.56 1139.69L608.744 1053.09L696.964 1032.35L758.994 1098.21L732.811 1184.81Z" fill="black"/>
</g>
<g clip-path="url(#clip64)">
<path d="M1394.37 739.661L1328.7 669.943C1327.58 668.743 1325.94 668.423 1324.34 668.8L1230.94 690.759C1229.34 691.136 1228.01 692.151 1227.54 693.728L1199.84 785.497C1199.36 787.074 1199.75 788.735 1200.88 789.935L1266.59 859.834C1267.72 861.035 1269.4 861.538 1271 861.161L1364.4 839.202C1366 838.825 1367.28 837.603 1367.75 836.026L1395.43 744.155C1395.9 742.579 1395.5 740.861 1394.37 739.661ZM1359.7 830.842L1271.48 851.584L1209.45 785.723L1235.64 699.119L1323.86 678.377L1385.89 744.241L1359.7 830.842Z" fill="black"/>
</g>
<g clip-path="url(#clip65)">
<path d="M1539.59 602.228L1473.92 532.51C1472.8 531.31 1471.16 530.99 1469.56 531.367L1376.16 553.326C1374.56 553.703 1373.23 554.719 1372.76 556.296L1345.06 648.065C1344.58 649.641 1344.97 651.302 1346.1 652.503L1411.81 722.402C1412.94 723.602 1414.62 724.105 1416.22 723.728L1509.62 701.77C1511.22 701.393 1512.5 700.17 1512.97 698.593L1540.65 606.723C1541.12 605.146 1540.72 603.428 1539.59 602.228ZM1504.92 693.409L1416.7 714.151L1354.67 648.29L1380.85 561.686L1469.08 540.944L1531.11 606.808L1504.92 693.409Z" fill="black"/>
</g>
<g clip-path="url(#clip66)">
<path d="M1585.62 797.985L1519.95 728.267C1518.82 727.067 1517.18 726.747 1515.58 727.124L1422.18 749.083C1420.58 749.46 1419.26 750.476 1418.78 752.052L1391.08 843.822C1390.61 845.398 1391 847.059 1392.12 848.259L1457.84 918.159C1458.96 919.359 1460.64 919.862 1462.25 919.485L1555.64 897.526C1557.25 897.15 1558.52 895.927 1559 894.35L1586.67 802.48C1587.15 800.903 1586.74 799.185 1585.62 797.985ZM1550.95 889.166L1462.73 909.908L1400.7 844.047L1426.88 757.443L1515.1 736.701L1577.13 802.565L1550.95 889.166Z" fill="black"/>
</g>
<g clip-path="url(#clip67)">
<path d="M1295.18 1072.85L1229.51 1003.13C1228.38 1001.93 1226.75 1001.61 1225.15 1001.99L1131.75 1023.95C1130.15 1024.33 1128.82 1025.34 1128.35 1026.92L1100.64 1118.69C1100.17 1120.26 1100.56 1121.92 1101.69 1123.12L1167.4 1193.02C1168.53 1194.22 1170.21 1194.73 1171.81 1194.35L1265.21 1172.39C1266.81 1172.01 1268.09 1170.79 1268.56 1169.22L1296.24 1077.34C1296.71 1075.77 1296.31 1074.05 1295.18 1072.85ZM1260.51 1164.03L1172.29 1184.77L1110.26 1118.91L1136.44 1032.31L1224.67 1011.57L1286.7 1077.43L1260.51 1164.03Z" fill="black"/>
</g>
<g clip-path="url(#clip68)">
<path d="M1440.4 935.418L1374.73 865.701C1373.6 864.501 1371.96 864.181 1370.36 864.558L1276.96 886.517C1275.36 886.893 1274.04 887.909 1273.56 889.486L1245.86 981.255C1245.39 982.831 1245.78 984.493 1246.91 985.693L1312.62 1055.59C1313.75 1056.79 1315.43 1057.3 1317.03 1056.92L1410.43 1034.96C1412.03 1034.58 1413.3 1033.36 1413.78 1031.78L1441.46 939.913C1441.93 938.337 1441.53 936.619 1440.4 935.418ZM1405.73 1026.6L1317.51 1047.34L1255.48 981.48L1281.66 894.877L1369.88 874.135L1431.91 939.998L1405.73 1026.6Z" fill="black"/>
</g>
<g clip-path="url(#clip69)">
<path d="M1486.43 1131.18L1420.76 1061.46C1419.63 1060.26 1417.99 1059.94 1416.39 1060.32L1322.99 1082.28C1321.39 1082.65 1320.07 1083.67 1319.59 1085.24L1291.89 1177.01C1291.42 1178.59 1291.81 1180.25 1292.93 1181.45L1358.64 1251.35C1359.77 1252.55 1361.45 1253.05 1363.06 1252.68L1456.45 1230.72C1458.05 1230.34 1459.33 1229.12 1459.8 1227.54L1487.48 1135.67C1487.96 1134.1 1487.55 1132.38 1486.43 1131.18ZM1451.76 1222.36L1363.53 1243.1L1301.5 1177.24L1327.69 1090.64L1415.91 1069.89L1477.94 1135.76L1451.76 1222.36Z" fill="black"/>
</g>
<g clip-path="url(#clip70)">
<path d="M1057.91 818.767L992.244 749.049C991.116 747.849 989.479 747.529 987.876 747.906L894.48 769.865C892.877 770.242 891.554 771.258 891.079 772.835L863.376 864.604C862.904 866.18 863.294 867.841 864.42 869.042L930.133 938.941C931.26 940.141 932.941 940.644 934.543 940.267L1027.94 918.309C1029.54 917.932 1030.82 916.709 1031.29 915.132L1058.97 823.262C1059.44 821.685 1059.04 819.967 1057.91 818.767ZM1023.24 909.949L935.023 930.69L872.993 864.829L899.176 778.225L987.397 757.483L1049.43 823.347L1023.24 909.949Z" fill="black"/>
</g>
<g clip-path="url(#clip71)">
<path d="M1011.89 623.008L946.22 553.291C945.092 552.091 943.455 551.771 941.852 552.147L848.455 574.106C846.852 574.483 845.529 575.499 845.054 577.076L817.352 668.845C816.879 670.421 817.27 672.082 818.395 673.283L884.108 743.182C885.236 744.382 886.916 744.885 888.519 744.509L981.916 722.55C983.518 722.173 984.793 720.95 985.268 719.374L1012.95 627.503C1013.42 625.927 1013.02 624.208 1011.89 623.008ZM977.219 714.19L888.998 734.932L826.969 669.07L853.152 582.466L941.372 561.725L1003.4 627.588L977.219 714.19Z" fill="black"/>
</g>
<g clip-path="url(#clip72)">
<path d="M1011.89 623.008L946.22 553.291C945.092 552.091 943.455 551.771 941.852 552.147L848.455 574.106C846.852 574.483 845.529 575.499 845.054 577.076L817.352 668.845C816.879 670.421 817.27 672.082 818.395 673.283L884.108 743.182C885.236 744.382 886.916 744.885 888.519 744.509L981.916 722.55C983.518 722.173 984.793 720.95 985.268 719.374L1012.95 627.503C1013.42 625.927 1013.02 624.208 1011.89 623.008ZM977.219 714.19L888.998 734.932L826.969 669.07L853.152 582.466L941.372 561.725L1003.4 627.588L977.219 714.19Z" fill="black"/>
</g>
<g clip-path="url(#clip73)">
<path d="M1348.35 543.903L1282.68 474.185C1281.55 472.985 1279.91 472.665 1278.31 473.042L1184.91 495.001C1183.31 495.378 1181.99 496.394 1181.51 497.97L1153.81 589.74C1153.34 591.316 1153.73 592.977 1154.85 594.177L1220.57 664.077C1221.7 665.277 1223.38 665.78 1224.98 665.403L1318.37 643.444C1319.98 643.068 1321.25 641.845 1321.73 640.268L1349.41 548.398C1349.88 546.821 1349.47 545.103 1348.35 543.903ZM1313.68 635.084L1225.46 655.826L1163.43 589.965L1189.61 503.361L1277.83 482.619L1339.86 548.483L1313.68 635.084Z" fill="black"/>
</g>
<g clip-path="url(#clip74)">
<path d="M1203.13 681.333L1137.46 611.616C1136.33 610.416 1134.7 610.096 1133.09 610.473L1039.7 632.432C1038.09 632.808 1036.77 633.824 1036.3 635.401L1008.59 727.17C1008.12 728.746 1008.51 730.408 1009.64 731.608L1075.35 801.507C1076.48 802.708 1078.16 803.211 1079.76 802.834L1173.16 780.875C1174.76 780.498 1176.03 779.275 1176.51 777.699L1204.19 685.828C1204.66 684.252 1204.26 682.534 1203.13 681.333ZM1168.46 772.515L1080.24 793.257L1018.21 727.395L1044.39 640.792L1132.61 620.05L1194.64 685.913L1168.46 772.515Z" fill="black"/>
</g>
<g clip-path="url(#clip75)">
<path d="M1249.16 877.093L1183.49 807.375C1182.36 806.176 1180.72 805.856 1179.12 806.232L1085.72 828.191C1084.12 828.568 1082.8 829.584 1082.32 831.161L1054.62 922.93C1054.15 924.506 1054.54 926.167 1055.66 927.368L1121.38 997.267C1122.5 998.467 1124.18 998.97 1125.79 998.594L1219.18 976.635C1220.79 976.258 1222.06 975.035 1222.54 973.459L1250.21 881.588C1250.69 880.012 1250.28 878.293 1249.16 877.093ZM1214.49 968.275L1126.27 989.017L1064.24 923.155L1090.42 836.551L1178.64 815.81L1240.67 881.673L1214.49 968.275Z" fill="black"/>
</g>
<g clip-path="url(#clip76)">
<path d="M1919.02 705.88L1853.35 636.163C1852.22 634.963 1850.59 634.643 1848.98 635.02L1755.59 656.978C1753.98 657.355 1752.66 658.371 1752.19 659.948L1724.48 751.717C1724.01 753.293 1724.4 754.955 1725.53 756.155L1791.24 826.054C1792.37 827.254 1794.05 827.758 1795.65 827.381L1889.05 805.422C1890.65 805.045 1891.92 803.822 1892.4 802.246L1920.08 710.375C1920.55 708.799 1920.15 707.081 1919.02 705.88ZM1884.35 797.062L1796.13 817.804L1734.1 751.942L1760.28 665.339L1848.5 644.597L1910.53 710.46L1884.35 797.062Z" fill="black"/>
</g>
<g clip-path="url(#clip77)">
<path d="M1876.05 523.122L1810.38 453.405C1809.25 452.205 1807.62 451.885 1806.01 452.262L1712.62 474.221C1711.01 474.597 1709.69 475.613 1709.22 477.19L1681.51 568.959C1681.04 570.535 1681.43 572.197 1682.56 573.397L1748.27 643.296C1749.4 644.497 1751.08 645 1752.68 644.623L1846.08 622.664C1847.68 622.287 1848.95 621.065 1849.43 619.488L1877.11 527.617C1877.58 526.041 1877.18 524.323 1876.05 523.122ZM1841.38 614.304L1753.16 635.046L1691.13 569.185L1717.31 482.581L1805.53 461.839L1867.56 527.703L1841.38 614.304Z" fill="black"/>
</g>
<g clip-path="url(#clip78)">
<path d="M2064.24 568.449L1998.57 498.731C1997.44 497.531 1995.8 497.211 1994.2 497.588L1900.8 519.547C1899.2 519.924 1897.88 520.94 1897.4 522.516L1869.7 614.285C1869.23 615.862 1869.62 617.523 1870.74 618.723L1936.46 688.623C1937.58 689.823 1939.26 690.326 1940.87 689.949L2034.26 667.99C2035.87 667.613 2037.14 666.391 2037.62 664.814L2065.29 572.943C2065.77 571.367 2065.36 569.649 2064.24 568.449ZM2029.57 659.63L1941.35 680.372L1879.32 614.511L1905.5 527.907L1993.72 507.165L2055.75 573.029L2029.57 659.63Z" fill="black"/>
</g>
<g clip-path="url(#clip79)">
<path d="M2110.26 764.205L2044.59 694.488C2043.47 693.288 2041.83 692.968 2040.23 693.345L1946.83 715.304C1945.23 715.68 1943.9 716.696 1943.43 718.273L1915.73 810.042C1915.25 811.618 1915.64 813.28 1916.77 814.48L1982.48 884.379C1983.61 885.58 1985.29 886.083 1986.89 885.706L2080.29 863.747C2081.89 863.37 2083.17 862.148 2083.64 860.571L2111.32 768.7C2111.79 767.124 2111.39 765.406 2110.26 764.205ZM2075.59 855.387L1987.37 876.129L1925.34 810.268L1951.53 723.664L2039.75 702.922L2101.78 768.786L2075.59 855.387Z" fill="black"/>
</g>
<g clip-path="url(#clip80)">
<path d="M1965.05 901.639L1899.38 831.921C1898.25 830.721 1896.61 830.402 1895.01 830.778L1801.61 852.737C1800.01 853.114 1798.69 854.13 1798.21 855.707L1770.51 947.476C1770.04 949.052 1770.43 950.713 1771.55 951.914L1837.26 1021.81C1838.39 1023.01 1840.07 1023.52 1841.68 1023.14L1935.07 1001.18C1936.67 1000.8 1937.95 999.581 1938.42 998.004L1966.1 906.134C1966.58 904.558 1966.17 902.839 1965.05 901.639ZM1930.38 992.821L1842.15 1013.56L1780.12 947.701L1806.31 861.097L1894.53 840.355L1956.56 906.219L1930.38 992.821Z" fill="black"/>
</g>
<g clip-path="url(#clip81)">
<path d="M2011.07 1097.4L1945.4 1027.68C1944.27 1026.48 1942.64 1026.16 1941.03 1026.54L1847.64 1048.5C1846.03 1048.87 1844.71 1049.89 1844.24 1051.46L1816.53 1143.23C1816.06 1144.81 1816.45 1146.47 1817.58 1147.67L1883.29 1217.57C1884.42 1218.77 1886.1 1219.27 1887.7 1218.9L1981.1 1196.94C1982.7 1196.56 1983.98 1195.34 1984.45 1193.76L2012.13 1101.89C2012.6 1100.32 2012.2 1098.6 2011.07 1097.4ZM1976.4 1188.58L1888.18 1209.32L1826.15 1143.46L1852.33 1056.86L1940.55 1036.11L2002.59 1101.98L1976.4 1188.58Z" fill="black"/>
</g>
</g>
<defs>
<clipPath id="clip0">
<rect width="201.096" height="201.096" fill="white" transform="translate(223.443 410.718) rotate(-13.2307)"/>
</clipPath>
<clipPath id="clip1">
<rect width="201.096" height="201.096" fill="white" transform="translate(368.66 273.287) rotate(-13.2307)"/>
</clipPath>
<clipPath id="clip2">
<rect width="201.096" height="201.096" fill="white" transform="translate(414.686 469.045) rotate(-13.2307)"/>
</clipPath>
<clipPath id="clip3">
<rect width="201.096" height="201.096" fill="white" transform="translate(276.609 -118.231) rotate(-13.2307)"/>
</clipPath>
<clipPath id="clip4">
<rect width="201.096" height="201.096" fill="white" transform="translate(322.635 77.5273) rotate(-13.2307)"/>
</clipPath>
<clipPath id="clip5">
<rect width="201.096" height="201.096" fill="white" transform="translate(-13.8247 156.634) rotate(-13.2307)"/>
</clipPath>
<clipPath id="clip6">
<rect width="201.096" height="201.096" fill="white" transform="translate(131.392 19.2021) rotate(-13.2307)"/>
</clipPath>
<clipPath id="clip7">
<rect width="201.096" height="201.096" fill="white" transform="translate(177.418 214.961) rotate(-13.2307)"/>
</clipPath>
<clipPath id="clip8">
<rect width="201.096" height="201.096" fill="white" transform="translate(-113.016 489.825) rotate(-13.2307)"/>
</clipPath>
<clipPath id="clip9">
<rect width="201.096" height="201.096" fill="white" transform="translate(32.2007 352.393) rotate(-13.2307)"/>
</clipPath>
<clipPath id="clip10">
<rect width="201.096" height="201.096" fill="white" transform="translate(78.2261 548.151) rotate(-13.2307)"/>
</clipPath>
<clipPath id="clip11">
<rect width="201.096" height="201.096" fill="white" transform="translate(-59.8506 -39.123) rotate(-13.2307)"/>
</clipPath>
<clipPath id="clip12">
<rect width="201.096" height="201.096" fill="white" transform="translate(-205.067 98.3076) rotate(-13.2307)"/>
</clipPath>
<clipPath id="clip13">
<rect width="201.096" height="201.096" fill="white" transform="translate(-159.042 294.066) rotate(-13.2307)"/>
</clipPath>
<clipPath id="clip14">
<rect width="201.096" height="201.096" fill="white" transform="translate(511 123.618) rotate(-13.2307)"/>
</clipPath>
<clipPath id="clip15">
<rect width="201.096" height="201.096" fill="white" transform="translate(467.852 -59.9033) rotate(-13.2307)"/>
</clipPath>
<clipPath id="clip16">
<rect width="201.096" height="201.096" fill="white" transform="translate(656.218 -13.8125) rotate(-13.2307)"/>
</clipPath>
<clipPath id="clip17">
<rect width="201.096" height="201.096" fill="white" transform="translate(702.243 181.945) rotate(-13.2307)"/>
</clipPath>
<clipPath id="clip18">
<rect width="201.096" height="201.096" fill="white" transform="translate(748.269 377.703) rotate(-13.2307)"/>
</clipPath>
<clipPath id="clip19">
<rect width="201.096" height="201.096" fill="white" transform="translate(893.485 240.271) rotate(-13.2307)"/>
</clipPath>
<clipPath id="clip20">
<rect width="201.096" height="201.096" fill="white" transform="translate(939.512 436.029) rotate(-13.2307)"/>
</clipPath>
<clipPath id="clip21">
<rect width="201.096" height="201.096" fill="white" transform="translate(1421.19 219.491) rotate(-13.2307)"/>
</clipPath>
<clipPath id="clip22">
<rect width="201.096" height="201.096" fill="white" transform="translate(1566.41 82.0596) rotate(-13.2307)"/>
</clipPath>
<clipPath id="clip23">
<rect width="201.096" height="201.096" fill="white" transform="translate(1612.43 277.817) rotate(-13.2307)"/>
</clipPath>
<clipPath id="clip24">
<rect width="201.096" height="201.096" fill="white" transform="translate(1520.38 -113.7) rotate(-13.2307)"/>
</clipPath>
<clipPath id="clip25">
<rect width="201.096" height="201.096" fill="white" transform="translate(557.026 319.378) rotate(-13.2307)"/>
</clipPath>
<clipPath id="clip26">
<rect width="201.096" height="201.096" fill="white" transform="translate(603.051 515.137) rotate(-13.2307)"/>
</clipPath>
<clipPath id="clip27">
<rect width="201.096" height="201.096" fill="white" transform="translate(1183.92 -34.5928) rotate(-13.2307)"/>
</clipPath>
<clipPath id="clip28">
<rect width="201.096" height="201.096" fill="white" transform="translate(1329.14 -172.025) rotate(-13.2307)"/>
</clipPath>
<clipPath id="clip29">
<rect width="201.096" height="201.096" fill="white" transform="translate(1375.16 23.7324) rotate(-13.2307)"/>
</clipPath>
<clipPath id="clip30">
<rect width="201.096" height="201.096" fill="white" transform="translate(1084.73 298.598) rotate(-13.2307)"/>
</clipPath>
<clipPath id="clip31">
<rect width="201.096" height="201.096" fill="white" transform="translate(1229.95 161.165) rotate(-13.2307)"/>
</clipPath>
<clipPath id="clip32">
<rect width="201.096" height="201.096" fill="white" transform="translate(1275.97 356.924) rotate(-13.2307)"/>
</clipPath>
<clipPath id="clip33">
<rect width="201.096" height="201.096" fill="white" transform="translate(847.461 44.5127) rotate(-13.2307)"/>
</clipPath>
<clipPath id="clip34">
<rect width="201.096" height="201.096" fill="white" transform="translate(801.435 -151.245) rotate(-13.2307)"/>
</clipPath>
<clipPath id="clip35">
<rect width="201.096" height="201.096" fill="white" transform="translate(801.435 -151.245) rotate(-13.2307)"/>
</clipPath>
<clipPath id="clip36">
<rect width="201.096" height="201.096" fill="white" transform="translate(992.678 -92.9199) rotate(-13.2307)"/>
</clipPath>
<clipPath id="clip37">
<rect width="201.096" height="201.096" fill="white" transform="translate(1038.7 102.839) rotate(-13.2307)"/>
</clipPath>
<clipPath id="clip38">
<rect width="201.096" height="201.096" fill="white" transform="translate(361.519 997.993) rotate(-13.2307)"/>
</clipPath>
<clipPath id="clip39">
<rect width="201.096" height="201.096" fill="white" transform="translate(269.468 606.477) rotate(-13.2307)"/>
</clipPath>
<clipPath id="clip40">
<rect width="201.096" height="201.096" fill="white" transform="translate(315.494 802.236) rotate(-13.2307)"/>
</clipPath>
<clipPath id="clip41">
<rect width="201.096" height="201.096" fill="white" transform="translate(-20.9653 881.342) rotate(-13.2307)"/>
</clipPath>
<clipPath id="clip42">
<rect width="201.096" height="201.096" fill="white" transform="translate(124.251 743.909) rotate(-13.2307)"/>
</clipPath>
<clipPath id="clip43">
<rect width="201.096" height="201.096" fill="white" transform="translate(170.277 939.667) rotate(-13.2307)"/>
</clipPath>
<clipPath id="clip44">
<rect width="201.096" height="201.096" fill="white" transform="translate(25.0586 1077.1) rotate(-13.2307)"/>
</clipPath>
<clipPath id="clip45">
<rect width="201.096" height="201.096" fill="white" transform="translate(-66.9912 685.583) rotate(-13.2307)"/>
</clipPath>
<clipPath id="clip46">
<rect width="201.096" height="201.096" fill="white" transform="translate(-212.208 823.017) rotate(-13.2307)"/>
</clipPath>
<clipPath id="clip47">
<rect width="201.096" height="201.096" fill="white" transform="translate(-166.184 1018.77) rotate(-13.2307)"/>
</clipPath>
<clipPath id="clip48">
<rect width="201.096" height="201.096" fill="white" transform="translate(1711.62 -55.373) rotate(-13.2307)"/>
</clipPath>
<clipPath id="clip49">
<rect width="201.096" height="201.096" fill="white" transform="translate(1902.87 2.95312) rotate(-13.2307)"/>
</clipPath>
<clipPath id="clip50">
<rect width="201.096" height="201.096" fill="white" transform="translate(1757.65 140.385) rotate(-13.2307)"/>
</clipPath>
<clipPath id="clip51">
<rect width="201.096" height="201.096" fill="white" transform="translate(1803.67 336.144) rotate(-13.2307)"/>
</clipPath>
<clipPath id="clip52">
<rect width="201.096" height="201.096" fill="white" transform="translate(503.859 848.327) rotate(-13.2307)"/>
</clipPath>
<clipPath id="clip53">
<rect width="201.096" height="201.096" fill="white" transform="translate(460.711 664.803) rotate(-13.2307)"/>
</clipPath>
<clipPath id="clip54">
<rect width="201.096" height="201.096" fill="white" transform="translate(649.077 710.895) rotate(-13.2307)"/>
</clipPath>
<clipPath id="clip55">
<rect width="201.096" height="201.096" fill="white" transform="translate(695.103 906.652) rotate(-13.2307)"/>
</clipPath>
<clipPath id="clip56">
<rect width="201.096" height="201.096" fill="white" transform="translate(741.127 1102.41) rotate(-13.2307)"/>
</clipPath>
<clipPath id="clip57">
<rect width="201.096" height="201.096" fill="white" transform="translate(886.345 964.978) rotate(-13.2307)"/>
</clipPath>
<clipPath id="clip58">
<rect width="201.096" height="201.096" fill="white" transform="translate(1414.05 944.197) rotate(-13.2307)"/>
</clipPath>
<clipPath id="clip59">
<rect width="201.096" height="201.096" fill="white" transform="translate(1559.26 806.767) rotate(-13.2307)"/>
</clipPath>
<clipPath id="clip60">
<rect width="201.096" height="201.096" fill="white" transform="translate(1605.29 1002.52) rotate(-13.2307)"/>
</clipPath>
<clipPath id="clip61">
<rect width="201.096" height="201.096" fill="white" transform="translate(1467.21 415.249) rotate(-13.2307)"/>
</clipPath>
<clipPath id="clip62">
<rect width="201.096" height="201.096" fill="white" transform="translate(1513.24 611.007) rotate(-13.2307)"/>
</clipPath>
<clipPath id="clip63">
<rect width="201.096" height="201.096" fill="white" transform="translate(549.885 1044.08) rotate(-13.2307)"/>
</clipPath>
<clipPath id="clip64">
<rect width="201.096" height="201.096" fill="white" transform="translate(1176.78 690.114) rotate(-13.2307)"/>
</clipPath>
<clipPath id="clip65">
<rect width="201.096" height="201.096" fill="white" transform="translate(1322 552.682) rotate(-13.2307)"/>
</clipPath>
<clipPath id="clip66">
<rect width="201.096" height="201.096" fill="white" transform="translate(1368.02 748.438) rotate(-13.2307)"/>
</clipPath>
<clipPath id="clip67">
<rect width="201.096" height="201.096" fill="white" transform="translate(1077.59 1023.3) rotate(-13.2307)"/>
</clipPath>
<clipPath id="clip68">
<rect width="201.096" height="201.096" fill="white" transform="translate(1222.8 885.872) rotate(-13.2307)"/>
</clipPath>
<clipPath id="clip69">
<rect width="201.096" height="201.096" fill="white" transform="translate(1268.83 1081.63) rotate(-13.2307)"/>
</clipPath>
<clipPath id="clip70">
<rect width="201.096" height="201.096" fill="white" transform="translate(840.318 769.221) rotate(-13.2307)"/>
</clipPath>
<clipPath id="clip71">
<rect width="201.096" height="201.096" fill="white" transform="translate(794.294 573.462) rotate(-13.2307)"/>
</clipPath>
<clipPath id="clip72">
<rect width="201.096" height="201.096" fill="white" transform="translate(794.294 573.462) rotate(-13.2307)"/>
</clipPath>
<clipPath id="clip73">
<rect width="201.096" height="201.096" fill="white" transform="translate(1130.75 494.356) rotate(-13.2307)"/>
</clipPath>
<clipPath id="clip74">
<rect width="201.096" height="201.096" fill="white" transform="translate(985.536 631.787) rotate(-13.2307)"/>
</clipPath>
<clipPath id="clip75">
<rect width="201.096" height="201.096" fill="white" transform="translate(1031.56 827.547) rotate(-13.2307)"/>
</clipPath>
<clipPath id="clip76">
<rect width="201.096" height="201.096" fill="white" transform="translate(1701.43 656.334) rotate(-13.2307)"/>
</clipPath>
<clipPath id="clip77">
<rect width="201.096" height="201.096" fill="white" transform="translate(1658.46 473.576) rotate(-13.2307)"/>
</clipPath>
<clipPath id="clip78">
<rect width="201.096" height="201.096" fill="white" transform="translate(1846.64 518.902) rotate(-13.2307)"/>
</clipPath>
<clipPath id="clip79">
<rect width="201.096" height="201.096" fill="white" transform="translate(1892.67 714.659) rotate(-13.2307)"/>
</clipPath>
<clipPath id="clip80">
<rect width="201.096" height="201.096" fill="white" transform="translate(1747.45 852.093) rotate(-13.2307)"/>
</clipPath>
<clipPath id="clip81">
<rect width="201.096" height="201.096" fill="white" transform="translate(1793.48 1047.85) rotate(-13.2307)"/>
</clipPath>
</defs>
</svg>
