<svg width="25" height="25" viewBox="0 0 25 25" fill="none" xmlns="http://www.w3.org/2000/svg">
<path d="M2.19727 3.93604H22.8027C24.0143 3.93604 25 4.92173 25 6.1333V18.8668C25 20.0784 24.0143 21.0641 22.8027 21.0641H2.19727C0.985693 21.0641 0 20.0784 0 18.8668V6.1333C0 4.92173 0.985693 3.93604 2.19727 3.93604ZM2.48403 5.40088L2.77729 5.64507L11.6282 13.0152C12.1334 13.4358 12.8667 13.4358 13.3718 13.0152L22.2227 5.64507L22.516 5.40088H2.48403ZM23.5352 6.4584L16.3236 12.4634L23.5352 17.2629V6.4584ZM2.19727 19.5992H22.8027C23.1566 19.5992 23.4526 19.3469 23.5205 19.0127L15.1491 13.4414L14.3091 14.1409C13.785 14.5773 13.1424 14.7956 12.5 14.7956C11.8575 14.7956 11.215 14.5773 10.6908 14.1409L9.85078 13.4414L1.47949 19.0127C1.54736 19.3469 1.84336 19.5992 2.19727 19.5992ZM1.46484 17.2629L8.67637 12.4635L1.46484 6.4584V17.2629Z" fill="#F0F0F0"/>
</svg>
