<svg width="24" height="24" viewBox="0 0 24 24" fill="none" xmlns="http://www.w3.org/2000/svg">
  <path
    d="M2.60075 1.07624C2.5467 1.13401 2.45538 1.25469 2.39435 1.33762C1.25986 2.84204 -0.095943 5.15483 0.00562567 7.387C0.178013 11.1245 5.22196 16.0921 6.76413 17.5257C8.30676 18.9588 13.6293 23.6268 17.3659 23.5252C17.9889 23.5098 18.6491 23.3789 19.3274 23.1357C20.8933 22.5743 22.3069 21.5064 23.2047 20.7204C23.2047 20.7204 23.3981 20.556 23.4726 20.4768C23.6604 20.2741 23.809 19.9782 23.9269 19.5724C23.987 19.3651 24 19.1466 24 19.0003C24 18.8372 23.9837 18.5213 23.8766 18.2339C23.7298 17.8406 23.5616 17.5592 23.3603 17.3701C23.2113 17.2317 19.8423 14.5923 19.8208 14.5774L19.7952 14.5606C19.6126 14.4204 19.422 14.3109 19.2282 14.235C18.7203 14.036 18.158 14.0281 17.6441 14.2117C17.3175 14.3286 17.0235 14.522 16.7966 14.767L15.6388 16.0064C15.5302 16.1228 15.3285 16.2435 15.2572 16.2607C15.1822 16.2747 15.13 16.2784 15.0965 16.2794L7.32602 9.05823C7.30738 9.04052 7.29806 9.02328 7.29294 9.01117C7.29667 8.99999 7.30132 8.9902 7.30365 8.98275C7.33207 8.92498 7.46626 8.74141 7.63398 8.5597L8.77966 7.31945C9.38581 6.66764 9.5363 5.65382 9.15052 4.86316C9.01308 4.58129 8.82485 4.3707 8.73773 4.27146L8.69253 4.21555C8.67017 4.18992 5.8337 1.07717 5.70651 0.96023C5.39109 0.667171 4.89443 0.508762 4.18857 0.475216C3.79628 0.456579 3.30427 0.572126 3.01867 0.749637C2.8351 0.864717 2.69766 0.971878 2.60075 1.07624ZM4.74068 1.97219C4.89955 2.13339 7.48117 4.96101 7.61628 5.10916L7.71133 5.22425C7.75 5.26758 7.84085 5.36961 7.89396 5.4777C8.03187 5.76097 7.97783 6.12998 7.75419 6.37085L6.60712 7.6125C6.47293 7.7574 6.1468 8.12827 6.01727 8.43717C5.93155 8.6431 5.89101 8.82247 5.89055 9.03074C5.90452 9.42862 6.07318 9.79949 6.37043 10.0795L14.2192 17.3733C14.5178 17.6506 14.952 17.7391 15.5102 17.6361C15.9416 17.5564 16.409 17.2303 16.6605 16.961L17.8202 15.7194C17.8975 15.636 18 15.5698 18.1156 15.5279C18.3085 15.4589 18.5284 15.4622 18.7185 15.5367C18.8294 15.58 18.9216 15.6523 18.9519 15.676C18.9808 15.6984 19.0041 15.7147 19.025 15.7277C19.3479 15.9779 22.245 18.2548 22.402 18.3872C22.4024 18.3881 22.4709 18.465 22.5674 18.7226C22.5809 18.759 22.6023 18.8661 22.6023 18.9998C22.6023 19.0963 22.5916 19.1592 22.5846 19.182C22.5119 19.4317 22.4518 19.5193 22.4518 19.5212C22.4066 19.5664 22.3125 19.6442 22.2967 19.6577C21.4771 20.3747 20.2154 21.3322 18.8555 21.8195C18.3178 22.0124 17.8053 22.1158 17.3301 22.1275C14.7773 22.1969 10.5552 19.1396 7.71599 16.5012C4.87626 13.8632 1.51937 9.87543 1.40196 7.32271C1.31623 5.48236 2.51316 3.50177 3.49856 2.19443L3.5363 2.14411C3.5582 2.11429 3.5978 2.05838 3.6183 2.03415C3.65324 2.00108 3.70542 1.96893 3.74689 1.94284C3.80886 1.91115 4.00128 1.86643 4.12148 1.87248C4.53428 1.89252 4.7253 1.9666 4.74068 1.97219Z"
    fill="#ffffff"/>
</svg>
