<svg width="25" height="25" viewBox="0 0 25 25" fill="none" xmlns="http://www.w3.org/2000/svg">
<path d="M24.3042 16.6122C24.7543 15.3238 24.9999 13.9401 24.9999 12.4999C24.9999 11.0598 24.7543 9.6761 24.3042 8.38765C24.2932 8.34894 24.2802 8.31119 24.2644 8.27488C22.5282 3.4554 17.9104 0 12.5001 0C7.08976 0 2.4718 3.4554 0.735739 8.27488C0.71997 8.31131 0.70683 8.34894 0.69596 8.38765C0.245847 9.6761 0.000244141 11.0598 0.000244141 12.4999C0.000244141 13.9401 0.245847 15.3238 0.69596 16.6122C0.706949 16.6509 0.71997 16.6887 0.735739 16.725C2.47192 21.5446 7.08976 24.9999 12.5001 24.9999C17.9104 24.9999 22.5282 21.5445 24.2644 16.725C24.2802 16.6887 24.2932 16.6511 24.3042 16.6122ZM12.5001 23.2082C12.024 23.2082 11.2565 22.3466 10.615 20.4219C10.3054 19.4932 10.0575 18.4255 9.87692 17.264H15.1232C14.9426 18.4255 14.6947 19.493 14.3852 20.4219C13.7436 22.3466 12.9761 23.2082 12.5001 23.2082ZM9.65951 15.4721C9.57338 14.5167 9.52787 13.52 9.52787 12.4999C9.52787 11.4799 9.57338 10.4832 9.65951 9.52774H15.3405C15.4266 10.4832 15.4721 11.4799 15.4721 12.4999C15.4721 13.52 15.4266 14.5167 15.3405 15.4721H9.65951ZM1.79197 12.5001C1.79197 11.4691 1.93879 10.4719 2.21198 9.52786H7.86228C7.77854 10.503 7.73602 11.5024 7.73602 12.5001C7.73602 13.4978 7.77842 14.4971 7.86228 15.4723H2.21198C1.93879 14.5281 1.79197 13.531 1.79197 12.5001ZM12.5001 1.79185C12.9761 1.79185 13.7437 2.65337 14.3852 4.57806C14.6947 5.50683 14.9427 6.57453 15.1232 7.73589H9.8768C10.0574 6.57441 10.3053 5.50683 10.6149 4.57806C11.2565 2.65337 12.024 1.79185 12.5001 1.79185ZM17.1377 9.52786H22.788C23.0612 10.4719 23.208 11.4691 23.208 12.5001C23.208 13.531 23.0612 14.5282 22.788 15.4723H17.1377C17.2215 14.4971 17.264 13.4978 17.264 12.5001C17.264 11.5024 17.2215 10.503 17.1377 9.52786ZM22.0879 7.73601H16.9321C16.6134 5.53837 16.0667 3.56674 15.2996 2.16408C18.2735 2.97029 20.7373 5.02865 22.0879 7.73601ZM9.70036 2.16396C8.93333 3.56662 8.38658 5.53825 8.06787 7.73601H2.91212C4.26281 5.02865 6.72649 2.97029 9.70036 2.16396ZM2.91212 17.264H8.06787C8.38658 19.4616 8.93333 21.4333 9.70036 22.836C6.72649 22.0297 4.26281 19.9715 2.91212 17.264ZM15.2996 22.836C16.0667 21.4334 16.6134 19.4618 16.9321 17.264H22.0879C20.7373 19.9715 18.2735 22.0297 15.2996 22.836Z" fill="white"/>
</svg>
